<?xml version="1.0" encoding="utf-8"?>
<!-- Generator: Adobe Illustrator 13.0.0, SVG Export Plug-In . SVG Version: 6.00 Build 14948)  -->
<!DOCTYPE svg PUBLIC "-//W3C//DTD SVG 1.1//EN" "http://www.w3.org/Graphics/SVG/1.1/DTD/svg11.dtd">
<svg version="1.1" id="Layer_1" xmlns="http://www.w3.org/2000/svg" xmlns:xlink="http://www.w3.org/1999/xlink" x="0px" y="0px"
	 width="841.89px" height="595.276px" viewBox="0 0 841.89 595.276" enable-background="new 0 0 841.89 595.276"
	 xml:space="preserve">
<g>
	<defs>
		<rect id="SVGID_1_" width="841.89" height="595.276"/>
	</defs>
	<clipPath id="SVGID_2_">
		<use xlink:href="#SVGID_1_"  overflow="visible"/>
	</clipPath>
	<path clip-path="url(#SVGID_2_)" fill="#42443E" d="M769.981,396.89h-697.2c2.57-3.939,11.65-8.71,11.65-8.71l91.19-16.189
		l120.56-62.741l26.5-13.789l2.42-1.26l7.61-3.96l23.17-12.06l13.06-6.79l23.14-12.04l7.62-3.97l1.99-1.03l11.77-6.13v-7.44
		l0.67,0.35l6.49,3.36l7.84-4.08l0.84-0.44v9.02l14.25,7.38l0.59,0.3l7.55,3.91l23.53,12.18l12.729,6.59l23.521,12.18l7.56,3.91
		l1.17,0.61l28.79,14.9l118.15,61.169l91.19,16.11C758.332,388.23,767.412,392.97,769.981,396.89"/>
	<path clip-path="url(#SVGID_2_)" fill="#FFC001" d="M378.648,391.41h81.474c0,0,8.661-34.084-36.812-38.498
		C377.836,348.498,378.648,391.41,378.648,391.41"/>
	<path clip-path="url(#SVGID_2_)" fill="#42443E" d="M468.775,288.179c-0.554-0.212-0.967-0.385-1.228-0.497
		c-0.27-0.092-0.692-0.241-1.244-0.453c-5.87-2.257-25.569-11.306-32.613-32.994c-6.334-19.502-0.567-43.224,17.138-70.507
		c47.694-73.503,89.765-102.401,91.531-103.594l5.116-3.872c1.26-0.952,3.082-0.26,3.392,1.289l0.57,2.856
		c0.235,1.883,0.541,3.754,0.904,5.616c2.13,10.916,9.587,58.565-2.739,135.682c-5.137,32.117-16.749,53.592-34.518,63.827
		C495.326,296.912,474.644,290.435,468.775,288.179"/>
	<path clip-path="url(#SVGID_2_)" fill="#FFC001" d="M470.076,282.596c-0.332-0.138-0.659-0.264-0.998-0.384
		c-5.455-1.947-51.63-20.45-22.79-79.161c2.507-5.101,5.582-10.507,9.296-16.236c16.243-25.028,31.822-44.815,45.313-60.037
		c23.067-25.052,42.412-40.23,44.456-41.812c0.121-0.093,0.18-0.134,0.18-0.134c1.52,7.922,2.68,15.826,3.535,23.633
		c2.172,22.605,3.164,60.848-5.064,112.345c-1.08,6.742-2.421,12.816-3.976,18.282C522.1,301.997,475.431,284.804,470.076,282.596"
		/>
	<path clip-path="url(#SVGID_2_)" fill="#42443E" d="M526.093,350.727c-0.234-0.543-0.401-0.959-0.505-1.224
		c-0.123-0.256-0.313-0.662-0.549-1.205c-2.503-5.77-9.852-26.164,0.685-46.386c9.475-18.187,30.438-30.696,62.31-37.182
		c85.861-17.481,135.956-7.718,138.046-7.294l6.347,0.938c1.563,0.23,2.347,2.016,1.458,3.321l-1.639,2.409
		c-1.177,1.487-2.298,3.017-3.372,4.581c-6.296,9.169-35.063,47.879-98.717,93.124c-26.512,18.842-49.969,25.605-69.724,20.101
		C538.468,375.79,528.596,356.496,526.093,350.727"/>
	<path clip-path="url(#SVGID_2_)" fill="#FFC001" d="M530.988,347.743c-0.134-0.334-0.272-0.654-0.426-0.98
		c-2.433-5.256-21.59-51.165,40.505-71.73c5.396-1.786,11.407-3.381,18.097-4.746c29.237-5.95,54.271-8.702,74.586-9.744
		c34.034-1.098,58.42,2.067,60.979,2.416c0.152,0.022,0.223,0.035,0.223,0.035c-4.589,6.635-9.413,13.001-14.383,19.082
		c-14.604,17.391-41.192,44.897-83.698,75.113c-5.566,3.952-10.839,7.253-15.827,9.974
		C553.602,398.453,533.166,353.111,530.988,347.743"/>
	<path clip-path="url(#SVGID_2_)" fill="#42443E" d="M424.641,280.42c-0.593,0-1.04-0.013-1.324-0.023
		c-0.283,0.01-0.732,0.023-1.324,0.023c-6.289,0-27.923-1.377-42.281-19.092c-12.911-15.93-16.043-40.141-9.307-71.961
		c18.14-85.723,47.037-127.793,48.258-129.541l3.386-5.449c0.834-1.342,2.783-1.35,3.628-0.016l1.558,2.462
		c0.895,1.673,1.853,3.309,2.86,4.917c5.904,9.425,29.965,51.224,46.134,127.628c6.731,31.821,3.6,56.032-9.314,71.962
		C452.557,279.043,430.928,280.42,424.641,280.42"/>
	<path clip-path="url(#SVGID_2_)" fill="#FFC001" d="M423.852,274.742c-0.359-0.01-0.71-0.01-1.069,0
		c-5.791,0.14-55.53-0.56-49.681-65.71c0.51-5.66,1.44-11.81,2.85-18.49c6.18-29.19,13.62-53.25,20.75-72.3
		c12.54-31.66,25.15-52.77,26.49-54.98c0.08-0.13,0.12-0.19,0.12-0.19c4.261,6.85,8.181,13.81,11.78,20.79
		c10.14,20.32,24.79,55.66,35.59,106.68c1.41,6.68,2.34,12.83,2.851,18.49C479.372,274.182,429.642,274.881,423.852,274.742"/>
	<path clip-path="url(#SVGID_2_)" fill="#42443E" d="M504.181,311.105c-0.417-0.423-0.722-0.75-0.913-0.96
		c-0.207-0.193-0.53-0.505-0.945-0.927c-4.415-4.478-18.623-20.851-16.087-43.513c2.279-20.378,17.322-39.605,44.712-57.146
		c73.781-47.263,124.027-56.219,126.13-56.577l6.258-1.415c1.54-0.348,2.915,1.035,2.558,2.573l-0.658,2.838
		c-0.564,1.812-1.058,3.643-1.495,5.488c-2.566,10.822-15.442,57.301-58.5,122.454c-17.936,27.133-37.376,41.899-57.787,43.887
		C524.759,330.018,508.594,315.583,504.181,311.105"/>
	<path clip-path="url(#SVGID_2_)" fill="#FFC001" d="M507.67,306.556c-0.245-0.264-0.491-0.513-0.751-0.763
		c-4.164-4.024-38.586-39.937,11.917-81.509c4.389-3.611,9.422-7.266,15.168-10.952c25.126-16.091,47.483-27.684,66.057-35.98
		c31.349-13.296,55.234-19.136,57.75-19.733c0.147-0.035,0.219-0.049,0.219-0.049c-1.887,7.843-4.091,15.521-6.535,22.985
		c-7.352,21.486-22.234,56.729-50.985,100.238c-3.768,5.694-7.493,10.674-11.167,15.011
		C547.046,345.702,511.636,310.779,507.67,306.556"/>
	<path clip-path="url(#SVGID_2_)" fill="#42443E" d="M762.491,391.411h-226.97v-0.21c0.01-0.6,0.02-1.04,0.04-1.329
		c-0.009-0.279-0.021-0.73-0.021-1.319c0.052-6.29,1.58-27.911,19.4-42.151c16.02-12.79,40.25-15.75,72.02-8.79
		c85.592,18.75,127.461,47.95,129.19,49.181l5.43,3.431C762.053,390.512,762.352,390.941,762.491,391.411"/>
	<path clip-path="url(#SVGID_2_)" fill="#FFC001" d="M752.871,391.411h-211.68c0-0.39,0.01-0.72,0.02-0.96
		c0.012-0.358,0.012-0.71,0.012-1.068c-0.102-5.79,0.948-55.531,66.059-49.211c5.651,0.551,11.8,1.52,18.47,2.979
		c29.142,6.391,53.15,14,72.15,21.271c31.571,12.761,52.59,25.52,54.79,26.881C752.791,391.361,752.852,391.401,752.871,391.411"/>
	<path clip-path="url(#SVGID_2_)" fill="#42443E" d="M372.797,288.179c0.553-0.212,0.966-0.385,1.228-0.497
		c0.269-0.092,0.692-0.241,1.244-0.453c5.87-2.257,25.569-11.306,32.613-32.994c6.334-19.502,0.569-43.224-17.137-70.507
		c-47.696-73.503-89.765-102.401-91.532-103.594l-5.117-3.872c-1.259-0.952-3.081-0.26-3.391,1.289l-0.57,2.856
		c-0.235,1.883-0.542,3.754-0.905,5.616c-2.13,10.916-9.587,58.565,2.74,135.682c5.137,32.117,16.749,53.592,34.519,63.827
		C346.247,296.912,366.929,290.435,372.797,288.179"/>
	<path clip-path="url(#SVGID_2_)" fill="#FFC001" d="M371.496,282.596c0.333-0.138,0.659-0.264,0.999-0.384
		c5.455-1.947,51.63-20.45,22.79-79.161c-2.508-5.101-5.582-10.507-9.296-16.236c-16.243-25.028-31.822-44.815-45.314-60.037
		c-23.066-25.052-42.412-40.23-44.456-41.812c-0.121-0.093-0.18-0.134-0.18-0.134c-1.518,7.922-2.679,15.826-3.534,23.633
		c-2.173,22.605-3.165,60.848,5.064,112.345c1.081,6.742,2.42,12.816,3.975,18.282C319.474,301.997,366.142,284.804,371.496,282.596
		"/>
	<path clip-path="url(#SVGID_2_)" fill="#42443E" d="M315.479,350.727c0.236-0.543,0.402-0.959,0.506-1.224
		c0.123-0.256,0.313-0.662,0.548-1.205c2.504-5.77,9.852-26.164-0.684-46.386c-9.475-18.187-30.439-30.696-62.31-37.182
		c-85.86-17.481-135.956-7.718-138.046-7.294l-6.347,0.938c-1.562,0.23-2.345,2.016-1.457,3.321l1.638,2.409
		c1.178,1.487,2.298,3.017,3.373,4.581c6.295,9.169,35.063,47.879,98.716,93.124c26.512,18.842,49.97,25.605,69.724,20.101
		C303.104,375.79,312.977,356.496,315.479,350.727"/>
	<path clip-path="url(#SVGID_2_)" fill="#FFC001" d="M310.584,347.743c0.134-0.334,0.273-0.654,0.426-0.98
		c2.433-5.256,21.59-51.165-40.505-71.73c-5.395-1.786-11.407-3.381-18.097-4.746c-29.238-5.95-54.271-8.702-74.585-9.744
		c-34.035-1.098-58.42,2.067-60.981,2.416c-0.151,0.022-0.221,0.035-0.221,0.035c4.588,6.635,9.412,13.001,14.382,19.082
		c14.605,17.391,41.193,44.897,83.698,75.113c5.567,3.952,10.839,7.253,15.828,9.974
		C287.971,398.453,308.408,353.111,310.584,347.743"/>
	<path clip-path="url(#SVGID_2_)" fill="#42443E" d="M337.392,311.105c0.416-0.423,0.721-0.75,0.913-0.96
		c0.207-0.193,0.531-0.505,0.946-0.927c4.415-4.478,18.622-20.851,16.087-43.513c-2.28-20.378-17.324-39.605-44.713-57.146
		c-73.781-47.263-124.027-56.219-126.13-56.577l-6.258-1.415c-1.54-0.348-2.914,1.035-2.557,2.573l0.659,2.838
		c0.563,1.812,1.057,3.643,1.494,5.488c2.566,10.822,15.442,57.301,58.5,122.454c17.935,27.133,37.377,41.899,57.787,43.887
		C316.813,330.018,332.979,315.583,337.392,311.105"/>
	<path clip-path="url(#SVGID_2_)" fill="#FFC001" d="M333.902,306.556c0.246-0.264,0.492-0.513,0.751-0.763
		c4.165-4.024,38.586-39.937-11.917-81.509c-4.389-3.611-9.421-7.266-15.168-10.952c-25.126-16.091-47.483-27.684-66.055-35.98
		c-31.35-13.296-55.236-19.136-57.75-19.733c-0.149-0.035-0.22-0.049-0.22-0.049c1.888,7.843,4.092,15.521,6.536,22.985
		c7.351,21.486,22.234,56.729,50.985,100.238c3.767,5.694,7.494,10.674,11.166,15.011
		C294.526,345.702,329.937,310.779,333.902,306.556"/>
	<path clip-path="url(#SVGID_2_)" fill="#42443E" d="M79.081,391.411h226.97v-0.21c-0.01-0.6-0.02-1.04-0.04-1.329
		c0.01-0.279,0.02-0.73,0.02-1.319c-0.05-6.29-1.58-27.911-19.4-42.151c-16.02-12.79-40.25-15.75-72.02-8.79
		c-85.59,18.75-127.46,47.95-129.19,49.181l-5.43,3.431C79.521,390.512,79.221,390.941,79.081,391.411"/>
	<path clip-path="url(#SVGID_2_)" fill="#FFC001" d="M88.701,391.411h211.68c0-0.39-0.01-0.72-0.02-0.96
		c-0.01-0.358-0.01-0.71-0.01-1.068c0.1-5.79-0.95-55.531-66.06-49.211c-5.65,0.551-11.8,1.52-18.47,2.979
		c-29.14,6.391-53.15,14-72.15,21.271c-31.57,12.761-52.59,25.52-54.79,26.881C88.781,391.361,88.721,391.401,88.701,391.411"/>
	<path clip-path="url(#SVGID_2_)" fill="#554601" d="M572.312,391.41h-115.78c-0.6-0.76-1.119-1.58-1.55-2.47
		c-1.54-3.19-1.68-6.69-0.7-9.84c-1.289-1.15-2.369-2.549-3.149-4.15c-0.8-1.66-1.22-3.398-1.311-5.13
		c-3.05-1.229-5.61-3.559-7.079-6.599c-0.241-0.5-0.44-1-0.61-1.512c-3.601-0.34-6.921-2.14-9.18-4.92
		c-1.19,0.33-2.41,0.53-3.641,0.53c-2.649,0-5.2-0.809-7.351-2.21c-2.149,1.401-4.699,2.21-7.339,2.21c-1.23,0-2.46-0.2-3.64-0.53
		c-2.26,2.78-5.58,4.58-9.19,4.92c-0.17,0.512-0.37,1.012-0.6,1.512c-1.47,3.04-4.04,5.358-7.08,6.599
		c-0.09,1.76-0.53,3.5-1.32,5.13c-0.77,1.602-1.85,3-3.14,4.15c0.98,3.149,0.83,6.649-0.71,9.84c-0.43,0.89-0.95,1.71-1.55,2.47
		h-115.04c0.78-9.34,7.45-17.01,16.28-19.278c-6.86-3.682-11.54-10.91-11.54-19.222c0-12.02,9.78-21.8,21.8-21.8
		c0.62,0,1.24,0.04,1.85,0.09c-3.58-3.89-5.78-9.068-5.78-14.77c0-2.509,0.43-4.931,1.22-7.181c2.98-8.5,11.08-14.609,20.57-14.609
		c2.06,0,4.04,0.29,5.93,0.82c1.27,0.36,2.49,0.83,3.65,1.4c-0.47-0.85-0.88-1.74-1.23-2.66c-0.94-2.43-1.46-5.06-1.46-7.81
		c0-12.021,9.78-21.79,21.79-21.79c5.63,0,10.76,2.14,14.63,5.65c-0.1-0.86-0.16-1.74-0.16-2.62c0-12.02,9.77-21.8,21.79-21.8
		c7.47,0,14.08,3.79,18.01,9.55c0.43,0.63,0.83,1.29,1.2,1.97c0.19-1.03,0.45-2.03,0.79-3c1.94-5.78,6.25-10.47,11.77-12.93
		c0.22-0.11,0.44-0.2,0.67-0.29c2.53-1.04,5.3-1.61,8.2-1.61c2.129,0,4.18,0.31,6.129,0.89c0.281,0.07,0.561,0.16,0.841,0.26
		c7.08,2.39,12.53,8.33,14.25,15.7c0.07,0.32,0.14,0.65,0.199,0.98c0.121-0.23,0.25-0.46,0.391-0.68
		c3.779-6.48,10.8-10.84,18.819-10.84c12.021,0,21.79,9.78,21.79,21.8c0,0.88-0.06,1.76-0.159,2.62c3.869-3.51,9.01-5.65,14.63-5.65
		c12.021,0,21.79,9.77,21.79,21.79c0,3.22-0.7,6.29-1.98,9.05c-0.21,0.48-0.449,0.96-0.71,1.42c0.61-0.3,1.24-0.57,1.881-0.81
		c2.399-0.91,4.989-1.41,7.699-1.41c10.13,0,18.65,6.939,21.091,16.31c0.46,1.75,0.699,3.59,0.699,5.48
		c0,5.701-2.19,10.88-5.779,14.77c0.609-0.05,1.229-0.09,1.859-0.09c12.01,0,21.79,9.78,21.79,21.8c0,8.312-4.68,15.54-11.54,19.222
		C564.852,374.4,571.531,382.07,572.312,391.41"/>
	<path clip-path="url(#SVGID_2_)" fill="#FFFFFF" d="M476.252,267.627c0,7.339-5.949,13.288-13.288,13.288
		s-13.289-5.949-13.289-13.288c0-7.339,5.95-13.289,13.289-13.289S476.252,260.288,476.252,267.627"/>
	<path clip-path="url(#SVGID_2_)" fill="#FFFFFF" d="M435.616,261.312c0,7.339-5.949,13.289-13.288,13.289
		s-13.289-5.95-13.289-13.289c0-7.339,5.95-13.289,13.289-13.289S435.616,253.973,435.616,261.312"/>
	<path clip-path="url(#SVGID_2_)" fill="#FFFFFF" d="M449.441,286.388c0,5.905-4.787,10.692-10.691,10.692
		c-5.906,0-10.692-4.787-10.692-10.692c0-5.905,4.786-10.692,10.692-10.692C444.654,275.696,449.441,280.483,449.441,286.388"/>
	<path clip-path="url(#SVGID_2_)" fill="#FFFFFF" d="M481.2,296.719c0,5.904-4.787,10.691-10.69,10.691
		c-5.906,0-10.693-4.787-10.693-10.691c0-5.905,4.787-10.692,10.693-10.692C476.413,286.027,481.2,290.814,481.2,296.719"/>
	<path clip-path="url(#SVGID_2_)" fill="#FFFFFF" d="M507.907,316.432c0,5.905-4.787,10.692-10.691,10.692
		c-5.905,0-10.692-4.787-10.692-10.692c0-5.903,4.787-10.69,10.692-10.69C503.12,305.742,507.907,310.529,507.907,316.432"/>
	<path clip-path="url(#SVGID_2_)" fill="#FFFFFF" d="M527.125,343.881c0,5.904-4.787,10.691-10.69,10.691
		c-5.906,0-10.693-4.787-10.693-10.691c0-5.905,4.787-10.691,10.693-10.691C522.338,333.19,527.125,337.976,527.125,343.881"/>
	<path clip-path="url(#SVGID_2_)" fill="#FFFFFF" d="M536.577,376.207c0,5.904-4.787,10.691-10.692,10.691
		c-5.904,0-10.691-4.787-10.691-10.691s4.787-10.691,10.691-10.691C531.79,365.515,536.577,370.302,536.577,376.207"/>
	<path clip-path="url(#SVGID_2_)" fill="#FFFFFF" d="M512.452,365.514c0,4.711-3.819,8.529-8.529,8.529
		c-4.711,0-8.529-3.818-8.529-8.529s3.818-8.528,8.529-8.528C508.633,356.986,512.452,360.803,512.452,365.514"/>
	<path clip-path="url(#SVGID_2_)" fill="#FFFFFF" d="M516.432,391.41h-17.05c0-4.71,3.82-8.528,8.53-8.528
		C512.621,382.881,516.432,386.7,516.432,391.41"/>
	<path clip-path="url(#SVGID_2_)" fill="#FFFFFF" d="M498.924,380.945c0,4.063-3.293,7.355-7.354,7.355
		c-4.063,0-7.356-3.293-7.356-7.355c0-4.062,3.293-7.354,7.356-7.354C495.631,373.59,498.924,376.883,498.924,380.945"/>
	<path clip-path="url(#SVGID_2_)" fill="#FFFFFF" d="M481.552,352.891c3.659-1.766,8.057-0.229,9.82,3.43
		c1.766,3.658,0.23,8.055-3.428,9.819c-3.66,1.767-8.057,0.23-9.821-3.429S477.894,354.657,481.552,352.891"/>
	<path clip-path="url(#SVGID_2_)" fill="#FFFFFF" d="M469.058,334.315c3.659-1.765,8.057-0.229,9.82,3.43
		c1.766,3.658,0.229,8.055-3.428,9.82c-3.66,1.766-8.057,0.23-9.821-3.43C463.864,340.476,465.399,336.081,469.058,334.315"/>
	<path clip-path="url(#SVGID_2_)" fill="#FFFFFF" d="M451.645,320.961c3.658-1.765,8.057-0.229,9.82,3.431
		c1.765,3.657,0.229,8.055-3.429,9.819c-3.659,1.766-8.057,0.229-9.821-3.43C446.451,327.124,447.985,322.727,451.645,320.961"/>
	<path clip-path="url(#SVGID_2_)" fill="#FFFFFF" d="M429.983,314.054c3.659-1.765,8.057-0.229,9.82,3.43
		c1.766,3.658,0.229,8.055-3.428,9.82c-3.66,1.766-8.057,0.229-9.821-3.43S426.325,315.82,429.983,314.054"/>
	<path clip-path="url(#SVGID_2_)" fill="#FFFFFF" d="M436.75,330.454c2.911-1.403,6.409-0.183,7.813,2.729s0.183,6.409-2.729,7.813
		s-6.408,0.184-7.813-2.729C432.618,335.355,433.84,331.857,436.75,330.454"/>
	<path clip-path="url(#SVGID_2_)" fill="#FFFFFF" d="M453.172,338.611c2.91-1.403,6.408-0.183,7.813,2.729s0.183,6.409-2.729,7.813
		c-2.91,1.404-6.408,0.184-7.813-2.728C449.039,343.512,450.261,340.015,453.172,338.611"/>
	<path clip-path="url(#SVGID_2_)" fill="#FFFFFF" d="M465.623,351.714c2.91-1.403,6.408-0.183,7.813,2.729
		c1.404,2.91,0.183,6.408-2.729,7.812c-2.91,1.404-6.408,0.184-7.813-2.729C461.49,356.617,462.712,353.119,465.623,351.714"/>
	<path clip-path="url(#SVGID_2_)" fill="#FFFFFF" d="M473.111,368.319c2.911-1.403,6.409-0.183,7.813,2.729
		c1.404,2.911,0.183,6.408-2.728,7.812c-2.911,1.404-6.409,0.184-7.813-2.728S470.2,369.723,473.111,368.319"/>
	<path clip-path="url(#SVGID_2_)" fill="#FFFFFF" d="M484.092,391.41h-11.601c-0.32-2.43,0.93-4.88,3.25-6
		c2.911-1.41,6.411-0.188,7.821,2.73C484.071,389.2,484.232,390.33,484.092,391.41"/>
	<path clip-path="url(#SVGID_2_)" fill="#FFFFFF" d="M464.94,378.667c2.452-1.183,5.399-0.152,6.582,2.299
		c1.185,2.452,0.154,5.398-2.298,6.582c-2.452,1.183-5.399,0.153-6.582-2.299C461.461,382.796,462.488,379.85,464.94,378.667"/>
	<path clip-path="url(#SVGID_2_)" fill="#FFFFFF" d="M461.092,364.672c2.453-1.183,5.399-0.153,6.582,2.299
		c1.185,2.452,0.154,5.398-2.298,6.582c-2.452,1.183-5.399,0.153-6.582-2.299C457.612,368.802,458.64,365.856,461.092,364.672"/>
	<path clip-path="url(#SVGID_2_)" fill="#FFFFFF" d="M452.698,352.943c2.452-1.183,5.399-0.152,6.582,2.299
		c1.184,2.452,0.153,5.398-2.299,6.582c-2.452,1.183-5.397,0.153-6.582-2.299C449.218,357.073,450.246,354.127,452.698,352.943"/>
	<path clip-path="url(#SVGID_2_)" fill="#FFFFFF" d="M441.239,343.902c2.452-1.183,5.399-0.152,6.582,2.299
		c1.184,2.452,0.154,5.399-2.298,6.582s-5.398,0.153-6.582-2.299C437.759,348.032,438.787,345.086,441.239,343.902"/>
	<path clip-path="url(#SVGID_2_)" fill="#FFFFFF" d="M427.164,339.441c2.452-1.183,5.399-0.153,6.582,2.299
		c1.185,2.452,0.154,5.398-2.298,6.582c-2.452,1.183-5.399,0.153-6.582-2.299S424.712,340.625,427.164,339.441"/>
	<path clip-path="url(#SVGID_2_)" fill="#FFFFFF" d="M500.632,340.522c0,4.71-3.817,8.529-8.529,8.529
		c-4.71,0-8.528-3.819-8.528-8.529c0-4.711,3.818-8.528,8.528-8.528C496.814,331.994,500.632,335.811,500.632,340.522"/>
	<path clip-path="url(#SVGID_2_)" fill="#FFFFFF" d="M481.865,321.192c0,4.71-3.817,8.529-8.529,8.529
		c-4.71,0-8.529-3.819-8.529-8.529c0-4.711,3.819-8.528,8.529-8.528C478.048,312.664,481.865,316.481,481.865,321.192"/>
	<path clip-path="url(#SVGID_2_)" fill="#FFFFFF" d="M457.595,308.206c0,4.71-3.817,8.529-8.528,8.529
		c-4.712,0-8.53-3.819-8.53-8.529c0-4.711,3.818-8.528,8.53-8.528C453.777,299.677,457.595,303.495,457.595,308.206"/>
	<path clip-path="url(#SVGID_2_)" fill="#FFFFFF" d="M429.931,303.566c0,4.711-3.817,8.529-8.529,8.529
		c-4.711,0-8.53-3.818-8.53-8.529c0-4.71,3.819-8.529,8.53-8.529C426.113,295.037,429.931,298.856,429.931,303.566"/>
	<path clip-path="url(#SVGID_2_)" fill="#FFFFFF" d="M394.486,286.388c0,5.905,4.787,10.692,10.692,10.692
		c5.905,0,10.692-4.787,10.692-10.692c0-5.905-4.787-10.692-10.692-10.692C399.273,275.696,394.486,280.483,394.486,286.388"/>
	<path clip-path="url(#SVGID_2_)" fill="#FFFFFF" d="M362.728,296.719c0,5.904,4.787,10.691,10.692,10.691
		c5.905,0,10.692-4.787,10.692-10.691c0-5.905-4.787-10.692-10.692-10.692C367.514,286.027,362.728,290.814,362.728,296.719"/>
	<path clip-path="url(#SVGID_2_)" fill="#FFFFFF" d="M336.02,316.432c0,5.905,4.787,10.692,10.692,10.692
		c5.905,0,10.692-4.787,10.692-10.692c0-5.903-4.787-10.69-10.692-10.69C340.807,305.742,336.02,310.529,336.02,316.432"/>
	<path clip-path="url(#SVGID_2_)" fill="#FFFFFF" d="M316.803,343.881c0,5.904,4.787,10.691,10.692,10.691
		c5.905,0,10.692-4.787,10.692-10.691c0-5.905-4.787-10.691-10.692-10.691C321.589,333.19,316.803,337.976,316.803,343.881"/>
	<path clip-path="url(#SVGID_2_)" fill="#FFFFFF" d="M307.35,376.207c0,5.904,4.787,10.691,10.692,10.691
		c5.905,0,10.692-4.787,10.692-10.691s-4.787-10.691-10.692-10.691C312.137,365.515,307.35,370.302,307.35,376.207"/>
	<path clip-path="url(#SVGID_2_)" fill="#FFFFFF" d="M331.476,365.514c0,4.711,3.818,8.529,8.529,8.529s8.53-3.818,8.53-8.529
		s-3.819-8.528-8.53-8.528S331.476,360.803,331.476,365.514"/>
	<path clip-path="url(#SVGID_2_)" fill="#FFFFFF" d="M344.552,391.41h-17.06c0-4.71,3.82-8.528,8.53-8.528
		S344.552,386.7,344.552,391.41"/>
	<path clip-path="url(#SVGID_2_)" fill="#FFFFFF" d="M345.003,380.945c0,4.063,3.293,7.355,7.355,7.355s7.355-3.293,7.355-7.355
		c0-4.062-3.293-7.354-7.355-7.354S345.003,376.883,345.003,380.945"/>
	<path clip-path="url(#SVGID_2_)" fill="#FFFFFF" d="M362.375,352.891c-3.659-1.766-8.056-0.229-9.821,3.43
		c-1.764,3.658-0.229,8.055,3.429,9.819c3.66,1.767,8.056,0.23,9.821-3.429S366.035,354.657,362.375,352.891"/>
	<path clip-path="url(#SVGID_2_)" fill="#FFFFFF" d="M374.87,334.315c-3.659-1.765-8.056-0.229-9.821,3.43
		c-1.764,3.658-0.229,8.055,3.429,9.82c3.66,1.766,8.056,0.23,9.821-3.43C380.064,340.476,378.529,336.081,374.87,334.315"/>
	<path clip-path="url(#SVGID_2_)" fill="#FFFFFF" d="M392.283,320.961c-3.659-1.765-8.056-0.229-9.821,3.431
		c-1.764,3.657-0.229,8.055,3.429,9.819c3.66,1.766,8.056,0.229,9.821-3.43C397.478,327.124,395.942,322.727,392.283,320.961"/>
	<path clip-path="url(#SVGID_2_)" fill="#FFFFFF" d="M413.944,314.054c-3.659-1.765-8.056-0.229-9.821,3.43
		c-1.764,3.658-0.229,8.055,3.429,9.82c3.66,1.766,8.056,0.229,9.821-3.43S417.603,315.82,413.944,314.054"/>
	<path clip-path="url(#SVGID_2_)" fill="#FFFFFF" d="M407.177,330.454c-2.911-1.403-6.409-0.183-7.813,2.729
		c-1.404,2.911-0.183,6.409,2.729,7.813c2.91,1.403,6.408,0.184,7.813-2.729C411.309,335.355,410.088,331.857,407.177,330.454"/>
	<path clip-path="url(#SVGID_2_)" fill="#FFFFFF" d="M423.487,327.295c-2.911-1.403-6.409-0.183-7.813,2.729
		c-1.404,2.91-0.183,6.408,2.728,7.812c2.911,1.404,6.409,0.184,7.813-2.729C427.619,332.198,426.397,328.7,423.487,327.295"/>
	<path clip-path="url(#SVGID_2_)" fill="#FFFFFF" d="M390.756,338.611c-2.911-1.403-6.409-0.183-7.813,2.729
		c-1.404,2.911-0.183,6.409,2.729,7.813c2.91,1.404,6.408,0.184,7.812-2.728C394.888,343.512,393.667,340.015,390.756,338.611"/>
	<path clip-path="url(#SVGID_2_)" fill="#FFFFFF" d="M378.305,351.714c-2.911-1.403-6.409-0.183-7.813,2.729
		c-1.404,2.91-0.183,6.408,2.729,7.812c2.91,1.404,6.408,0.184,7.812-2.729C382.437,356.617,381.216,353.119,378.305,351.714"/>
	<path clip-path="url(#SVGID_2_)" fill="#FFFFFF" d="M370.816,368.319c-2.911-1.403-6.409-0.183-7.813,2.729
		c-1.404,2.911-0.183,6.408,2.729,7.812c2.91,1.404,6.408,0.184,7.813-2.728C374.948,373.221,373.727,369.723,370.816,368.319"/>
	<path clip-path="url(#SVGID_2_)" fill="#FFFFFF" d="M371.441,391.41h-11.6c-0.15-1.09,0.02-2.22,0.53-3.27
		c1.4-2.919,4.9-4.141,7.81-2.73C370.501,386.53,371.751,388.99,371.441,391.41"/>
	<path clip-path="url(#SVGID_2_)" fill="#FFFFFF" d="M378.986,378.667c-2.452-1.183-5.399-0.152-6.582,2.299
		c-1.183,2.452-0.154,5.398,2.299,6.582c2.452,1.183,5.399,0.153,6.581-2.299C382.467,382.796,381.439,379.85,378.986,378.667"/>
	<path clip-path="url(#SVGID_2_)" fill="#FFFFFF" d="M382.835,364.672c-2.452-1.183-5.399-0.153-6.582,2.299
		c-1.183,2.452-0.154,5.398,2.298,6.582c2.453,1.183,5.4,0.153,6.582-2.299C386.316,368.802,385.287,365.856,382.835,364.672"/>
	<path clip-path="url(#SVGID_2_)" fill="#FFFFFF" d="M391.229,352.943c-2.452-1.183-5.399-0.152-6.582,2.299
		c-1.183,2.452-0.154,5.398,2.299,6.582c2.452,1.183,5.399,0.153,6.581-2.299C394.71,357.073,393.682,354.127,391.229,352.943"/>
	<path clip-path="url(#SVGID_2_)" fill="#FFFFFF" d="M402.688,343.902c-2.453-1.183-5.399-0.152-6.582,2.299
		c-1.183,2.452-0.154,5.399,2.298,6.582s5.399,0.153,6.582-2.299C406.169,348.032,405.14,345.086,402.688,343.902"/>
	<path clip-path="url(#SVGID_2_)" fill="#FFFFFF" d="M416.763,339.441c-2.453-1.183-5.399-0.153-6.582,2.299
		c-1.183,2.452-0.154,5.398,2.298,6.582c2.452,1.183,5.399,0.153,6.582-2.299C420.244,343.571,419.215,340.625,416.763,339.441"/>
	<path clip-path="url(#SVGID_2_)" fill="#FFFFFF" d="M343.295,340.522c0,4.71,3.819,8.529,8.529,8.529
		c4.711,0,8.53-3.819,8.53-8.529c0-4.711-3.819-8.528-8.53-8.528C347.114,331.994,343.295,335.811,343.295,340.522"/>
	<path clip-path="url(#SVGID_2_)" fill="#FFFFFF" d="M362.062,321.192c0,4.71,3.818,8.529,8.529,8.529s8.53-3.819,8.53-8.529
		c0-4.711-3.819-8.528-8.53-8.528S362.062,316.481,362.062,321.192"/>
	<path clip-path="url(#SVGID_2_)" fill="#FFFFFF" d="M386.333,308.206c0,4.71,3.819,8.529,8.529,8.529
		c4.711,0,8.53-3.819,8.53-8.529c0-4.711-3.819-8.528-8.53-8.528C390.152,299.677,386.333,303.495,386.333,308.206"/>
	<path clip-path="url(#SVGID_2_)" fill="#FFFFFF" d="M512.511,286.388c0,7.339-5.949,13.289-13.289,13.289
		c-7.339,0-13.288-5.95-13.288-13.289c0-7.339,5.949-13.289,13.288-13.289C506.562,273.099,512.511,279.049,512.511,286.388"/>
	<path clip-path="url(#SVGID_2_)" fill="#FFFFFF" d="M541.191,316.432c0,7.34-5.949,13.289-13.288,13.289
		c-7.34,0-13.289-5.949-13.289-13.289c0-7.339,5.949-13.288,13.289-13.288C535.242,303.144,541.191,309.093,541.191,316.432"/>
	<path clip-path="url(#SVGID_2_)" fill="#FFFFFF" d="M559.056,352.906c0,7.339-5.949,13.288-13.288,13.288
		s-13.288-5.949-13.288-13.288s5.949-13.288,13.288-13.288S559.056,345.567,559.056,352.906"/>
	<path clip-path="url(#SVGID_2_)" fill="#FFFFFF" d="M563.751,391.41h-26.318c0.889-6.479,6.438-11.46,13.159-11.46
		S562.861,384.931,563.751,391.41"/>
	<path clip-path="url(#SVGID_2_)" fill="#FFFFFF" d="M368.404,267.627c0,7.339,5.95,13.288,13.289,13.288
		c7.338,0,13.288-5.949,13.288-13.288c0-7.339-5.95-13.289-13.288-13.289C374.354,254.338,368.404,260.288,368.404,267.627"/>
	<path clip-path="url(#SVGID_2_)" fill="#FFFFFF" d="M332.146,286.388c0,7.339,5.95,13.289,13.289,13.289
		c7.338,0,13.288-5.95,13.288-13.289c0-7.339-5.95-13.289-13.288-13.289C338.096,273.099,332.146,279.049,332.146,286.388"/>
	<path clip-path="url(#SVGID_2_)" fill="#FFFFFF" d="M303.465,316.432c0,7.34,5.949,13.289,13.289,13.289
		c7.338,0,13.288-5.949,13.288-13.289c0-7.339-5.95-13.288-13.288-13.288C309.414,303.144,303.465,309.093,303.465,316.432"/>
	<path clip-path="url(#SVGID_2_)" fill="#FFFFFF" d="M285.6,352.906c0,7.339,5.95,13.288,13.289,13.288
		c7.338,0,13.288-5.949,13.288-13.288s-5.95-13.288-13.288-13.288C291.55,339.618,285.6,345.567,285.6,352.906"/>
	<path clip-path="url(#SVGID_2_)" fill="#FFFFFF" d="M307.221,391.41h-26.32c0.89-6.479,6.44-11.46,13.16-11.46
		C300.781,379.95,306.332,384.931,307.221,391.41"/>
	<path clip-path="url(#SVGID_2_)" fill="#3D3D3D" d="M83.414,434.342l1.572-0.942c1.107,2.037,2.385,3.055,3.836,3.055
		c0.62,0,1.202-0.144,1.748-0.433c0.544-0.289,0.959-0.678,1.244-1.163c0.286-0.487,0.428-1.002,0.428-1.547
		c0-0.62-0.209-1.229-0.629-1.823c-0.578-0.823-1.635-1.813-3.169-2.968c-1.542-1.166-2.502-2.009-2.88-2.529
		c-0.653-0.872-0.98-1.814-0.98-2.829c0-0.804,0.192-1.538,0.578-2.201c0.386-0.662,0.929-1.183,1.628-1.564
		c0.701-0.382,1.461-0.573,2.283-0.573c0.872,0,1.687,0.216,2.446,0.647c0.759,0.434,1.562,1.227,2.408,2.385l-1.509,1.143
		c-0.696-0.922-1.289-1.529-1.779-1.823c-0.491-0.293-1.025-0.438-1.603-0.438c-0.747,0-1.357,0.225-1.83,0.678
		c-0.474,0.453-0.711,1.011-0.711,1.673c0,0.402,0.084,0.792,0.252,1.169c0.167,0.377,0.473,0.788,0.917,1.232
		c0.244,0.235,1.04,0.852,2.39,1.849c1.601,1.184,2.699,2.234,3.295,3.156c0.595,0.923,0.893,1.849,0.893,2.78
		c0,1.341-0.51,2.506-1.528,3.496c-1.019,0.988-2.258,1.482-3.717,1.482c-1.123,0-2.142-0.3-3.055-0.897
		C85.028,436.754,84.185,435.75,83.414,434.342"/>
	<path clip-path="url(#SVGID_2_)" fill="#3D3D3D" d="M88.998,438.752c-1.217,0-2.337-0.33-3.33-0.98
		c-0.979-0.642-1.885-1.715-2.692-3.189l-0.231-0.421l2.432-1.459l0.249,0.458c1.007,1.854,2.149,2.795,3.396,2.795
		c0.542,0,1.037-0.124,1.514-0.376c0.465-0.248,0.808-0.566,1.047-0.975c0.242-0.412,0.359-0.836,0.359-1.294
		c0-0.521-0.175-1.021-0.537-1.535c-0.547-0.776-1.576-1.736-3.061-2.856c-1.599-1.209-2.575-2.07-2.984-2.634
		c-0.713-0.95-1.076-2.002-1.076-3.122c0-0.892,0.217-1.717,0.646-2.454c0.43-0.738,1.043-1.328,1.821-1.753
		c1.593-0.866,3.6-0.838,5.215,0.081c0.83,0.472,1.669,1.297,2.565,2.521l0.29,0.397l-2.3,1.744l-0.302-0.401
		c-0.654-0.865-1.204-1.437-1.637-1.695c-0.415-0.248-0.855-0.368-1.346-0.368c-0.619,0-1.105,0.178-1.485,0.54
		c-0.374,0.357-0.556,0.787-0.556,1.312c0,0.329,0.071,0.655,0.209,0.966c0.142,0.32,0.416,0.684,0.814,1.082
		c0.15,0.146,0.682,0.58,2.333,1.8c1.666,1.23,2.784,2.307,3.418,3.287c0.646,1.001,0.973,2.027,0.973,3.051
		c0,1.476-0.565,2.772-1.68,3.854C91.952,438.207,90.584,438.752,88.998,438.752 M84.09,434.519
		c0.662,1.113,1.376,1.925,2.125,2.417c0.827,0.541,1.763,0.816,2.782,0.816c1.336,0,2.438-0.439,3.368-1.342
		c0.926-0.9,1.376-1.926,1.376-3.138c0-0.828-0.274-1.672-0.814-2.509c-0.558-0.865-1.626-1.884-3.17-3.023
		c-1.381-1.021-2.179-1.64-2.441-1.893c-0.497-0.498-0.831-0.95-1.027-1.389c-0.196-0.44-0.295-0.901-0.295-1.372
		c0-0.8,0.291-1.485,0.865-2.034c0.567-0.543,1.299-0.817,2.176-0.817c0.667,0,1.293,0.173,1.859,0.511
		c0.474,0.284,1.005,0.794,1.615,1.555l0.717-0.544c-0.691-0.883-1.347-1.505-1.955-1.851c-1.316-0.749-2.954-0.773-4.243-0.071
		c-0.623,0.34-1.093,0.791-1.435,1.377c-0.343,0.591-0.51,1.229-0.51,1.951c0,0.911,0.288,1.737,0.881,2.528
		c0.242,0.333,0.916,1.02,2.781,2.43c1.59,1.197,2.662,2.206,3.276,3.079c0.478,0.677,0.72,1.387,0.72,2.11
		c0,0.632-0.167,1.237-0.496,1.8c-0.331,0.564-0.816,1.02-1.442,1.352c-0.616,0.327-1.282,0.493-1.982,0.493
		c-1.524,0-2.874-0.963-4.016-2.865L84.09,434.519z"/>
	<path clip-path="url(#SVGID_2_)" fill="#3D3D3D" d="M109.65,419.29l8.627,18.498h-1.996l-2.91-6.087h-7.969l-2.881,6.087h-2.063
		l8.74-18.498H109.65z M109.417,423.219l-3.169,6.696h6.324L109.417,423.219z"/>
	<path clip-path="url(#SVGID_2_)" fill="#3D3D3D" d="M119.062,438.288h-3.096l-2.909-6.087h-7.338l-2.882,6.087h-3.168l9.212-19.498
		h1.088L119.062,438.288z M116.595,437.288h0.897l-8.07-17.304l-8.176,17.304h0.958l2.881-6.087h8.6L116.595,437.288z
		 M113.359,430.416h-7.902l3.96-8.367L113.359,430.416z M107.037,429.416h4.746l-2.368-5.024L107.037,429.416z"/>
	<polygon clip-path="url(#SVGID_2_)" fill="#3D3D3D" points="123.676,419.29 125.688,419.29 131.819,433.581 138.05,419.29 
		140.062,419.29 132.014,437.788 131.611,437.788 	"/>
	<path clip-path="url(#SVGID_2_)" fill="#3D3D3D" d="M132.341,438.288h-1.059l-8.365-19.498h3.101l5.805,13.531l5.899-13.531h3.102
		L132.341,438.288z M124.436,419.79l7.379,17.203l7.485-17.203h-0.922l-6.562,15.051l-6.457-15.051H124.436z"/>
	<rect x="146.844" y="419.29" clip-path="url(#SVGID_2_)" fill="#3D3D3D" width="1.849" height="18.498"/>
	<path clip-path="url(#SVGID_2_)" fill="#3D3D3D" d="M149.193,438.288h-2.849V418.79h2.849V438.288z M147.344,437.288h0.849V419.79
		h-0.849V437.288z"/>
	<path clip-path="url(#SVGID_2_)" fill="#3D3D3D" d="M156.934,419.29h1.849v11.167c0,1.324,0.025,2.15,0.075,2.478
		c0.092,0.729,0.306,1.339,0.641,1.83c0.335,0.489,0.851,0.9,1.547,1.231c0.696,0.331,1.396,0.497,2.1,0.497
		c0.612,0,1.199-0.13,1.761-0.391c0.561-0.259,1.031-0.62,1.408-1.081c0.377-0.46,0.654-1.019,0.83-1.672
		c0.126-0.47,0.189-1.435,0.189-2.893V419.29h1.849v11.167c0,1.651-0.162,2.986-0.485,4.005c-0.323,1.019-0.968,1.905-1.936,2.66
		c-0.969,0.754-2.141,1.131-3.516,1.131c-1.492,0-2.77-0.356-3.835-1.067c-1.064-0.713-1.777-1.656-2.138-2.83
		c-0.226-0.722-0.339-2.021-0.339-3.898V419.29z"/>
	<path clip-path="url(#SVGID_2_)" fill="#3D3D3D" d="M163.246,438.752c-1.585,0-2.969-0.388-4.113-1.152
		c-1.158-0.776-1.945-1.818-2.338-3.099c-0.242-0.774-0.361-2.1-0.361-4.045V418.79h2.849v11.667c0,1.612,0.037,2.195,0.069,2.4
		c0.084,0.661,0.271,1.203,0.56,1.624c0.283,0.414,0.737,0.771,1.349,1.063c1.162,0.556,2.372,0.601,3.435,0.104
		c0.491-0.227,0.905-0.544,1.233-0.944c0.33-0.403,0.577-0.903,0.733-1.484c0.079-0.292,0.172-1.009,0.172-2.763V418.79h2.849
		v11.667c0,1.694-0.171,3.093-0.508,4.155c-0.352,1.113-1.061,2.089-2.106,2.905C166.015,438.336,164.729,438.752,163.246,438.752
		 M157.434,419.79v10.667c0,1.817,0.106,3.078,0.316,3.749c0.33,1.072,0.964,1.909,1.939,2.563c0.976,0.652,2.174,0.983,3.557,0.983
		c1.255,0,2.334-0.346,3.209-1.025c0.882-0.688,1.477-1.5,1.767-2.416c0.305-0.965,0.461-2.263,0.461-3.854V419.79h-0.849v10.667
		c0,1.518-0.067,2.505-0.206,3.021c-0.194,0.719-0.505,1.345-0.925,1.859c-0.425,0.518-0.958,0.929-1.586,1.219
		c-1.332,0.619-2.853,0.572-4.286-0.109c-0.773-0.368-1.36-0.84-1.744-1.401c-0.38-0.554-0.623-1.243-0.725-2.05
		c-0.033-0.212-0.079-0.723-0.079-2.539V419.79H157.434z"/>
	<path clip-path="url(#SVGID_2_)" fill="#3D3D3D" d="M195.52,422.395l-1.434,1.358c-1.03-1.014-2.16-1.783-3.388-2.308
		c-1.229-0.523-2.426-0.785-3.591-0.785c-1.45,0-2.831,0.355-4.143,1.068c-1.313,0.713-2.329,1.68-3.05,2.898
		c-0.721,1.22-1.081,2.509-1.081,3.868c0,1.391,0.373,2.713,1.119,3.967c0.746,1.253,1.777,2.239,3.093,2.955
		c1.316,0.717,2.759,1.076,4.327,1.076c1.902,0,3.512-0.537,4.828-1.611c1.317-1.072,2.096-2.465,2.34-4.174h-5.898v-1.786h7.972
		c-0.017,2.859-0.865,5.128-2.546,6.81c-1.681,1.682-3.93,2.521-6.747,2.521c-3.421,0-6.129-1.165-8.124-3.495
		c-1.534-1.794-2.301-3.869-2.301-6.225c0-1.752,0.44-3.384,1.32-4.893c0.881-1.509,2.088-2.688,3.622-3.54
		c1.535-0.851,3.27-1.275,5.206-1.275c1.568,0,3.044,0.282,4.427,0.848C192.854,420.24,194.204,421.146,195.52,422.395"/>
	<path clip-path="url(#SVGID_2_)" fill="#3D3D3D" d="M187.321,438.753c-3.558,0-6.419-1.236-8.504-3.671
		c-1.607-1.879-2.421-4.083-2.421-6.551c0-1.833,0.467-3.563,1.388-5.144c0.922-1.58,2.204-2.833,3.811-3.726
		c1.603-0.889,3.436-1.339,5.449-1.339c1.625,0,3.178,0.298,4.616,0.887c1.435,0.588,2.849,1.536,4.204,2.821l0.382,0.363
		l-2.167,2.054l-0.344-0.339c-0.98-0.965-2.068-1.706-3.234-2.204c-2.609-1.111-5.079-0.943-7.299,0.264
		c-1.225,0.664-2.187,1.577-2.858,2.713c-0.672,1.135-1.012,2.351-1.012,3.612c0,1.294,0.353,2.542,1.049,3.712
		c0.697,1.171,1.673,2.102,2.903,2.771c1.236,0.673,2.611,1.015,4.087,1.015c1.776,0,3.294-0.504,4.513-1.498
		c1.076-0.877,1.752-1.956,2.055-3.287h-5.798v-2.784h8.976l-0.003,0.503c-0.018,2.979-0.924,5.389-2.693,7.16
		C192.651,437.855,190.262,438.753,187.321,438.753 M187.044,419.324c-1.841,0-3.511,0.408-4.963,1.214
		c-1.448,0.804-2.603,1.933-3.433,3.354c-0.831,1.425-1.252,2.986-1.252,4.64c0,2.224,0.733,4.208,2.181,5.9
		c1.886,2.204,4.491,3.321,7.744,3.321c2.666,0,4.817-0.8,6.393-2.374c1.477-1.479,2.279-3.481,2.388-5.956h-6.961v0.784h5.974
		l-0.081,0.57c-0.261,1.832-1.108,3.344-2.518,4.492c-1.402,1.143-3.133,1.723-5.145,1.723c-1.645,0-3.181-0.383-4.565-1.137
		c-1.389-0.756-2.494-1.812-3.284-3.137c-0.79-1.327-1.19-2.748-1.19-4.225c0-1.442,0.387-2.83,1.151-4.122
		c0.765-1.293,1.855-2.33,3.242-3.083c2.486-1.351,5.277-1.535,8.168-0.304c1.144,0.488,2.216,1.188,3.193,2.078l0.701-0.664
		c-1.143-1.018-2.321-1.78-3.506-2.264C189.964,419.596,188.539,419.324,187.044,419.324"/>
	<path clip-path="url(#SVGID_2_)" fill="#3D3D3D" d="M204.075,437.788V419.29h3.836c2.766,0,4.774,0.223,6.023,0.666
		c1.794,0.629,3.196,1.719,4.206,3.271c1.011,1.551,1.516,3.399,1.516,5.545c0,1.853-0.4,3.483-1.201,4.892
		c-0.801,1.409-1.84,2.448-3.119,3.119c-1.278,0.671-3.07,1.006-5.376,1.006H204.075z M205.849,436.04h2.138
		c2.557,0,4.33-0.159,5.32-0.478c1.391-0.452,2.485-1.267,3.282-2.443c0.796-1.177,1.194-2.616,1.194-4.315
		c0-1.784-0.432-3.31-1.295-4.574c-0.864-1.265-2.067-2.131-3.609-2.602c-1.157-0.352-3.065-0.526-5.722-0.526h-1.308V436.04z"/>
	<path clip-path="url(#SVGID_2_)" fill="#3D3D3D" d="M209.96,438.288h-6.385V418.79h4.335c2.852,0,4.877,0.229,6.191,0.694
		c1.891,0.663,3.392,1.83,4.458,3.468c1.06,1.628,1.597,3.585,1.597,5.819c0,1.932-0.426,3.661-1.266,5.139
		c-0.845,1.486-1.962,2.603-3.321,3.315C214.225,437.93,212.338,438.288,209.96,438.288 M204.575,437.288h5.385
		c2.214,0,3.945-0.318,5.144-0.949c1.186-0.622,2.168-1.606,2.916-2.923c0.754-1.326,1.136-2.889,1.136-4.645
		c0-2.037-0.483-3.812-1.434-5.273c-0.944-1.448-2.274-2.48-3.954-3.069c-1.19-0.425-3.16-0.639-5.858-0.639h-3.335V437.288z
		 M207.986,436.54h-2.638v-15.938h1.808c2.733,0,4.652,0.179,5.867,0.548c1.647,0.501,2.951,1.442,3.877,2.798
		c0.917,1.344,1.382,2.977,1.382,4.856c0,1.795-0.431,3.341-1.28,4.596c-0.857,1.266-2.049,2.154-3.542,2.639
		C212.41,436.375,210.621,436.54,207.986,436.54 M206.349,435.54h1.638c2.493,0,4.231-0.151,5.166-0.454
		c1.293-0.42,2.282-1.154,3.022-2.247c0.735-1.087,1.108-2.444,1.108-4.035c0-1.675-0.406-3.117-1.208-4.292
		c-0.794-1.162-1.918-1.972-3.342-2.405c-1.104-0.336-2.98-0.505-5.576-0.505h-0.808V435.54z"/>
	<path clip-path="url(#SVGID_2_)" fill="#3D3D3D" d="M235.989,418.824c2.802,0,5.147,0.936,7.034,2.805
		c1.888,1.869,2.832,4.171,2.832,6.903c0,2.708-0.942,5.006-2.826,6.892c-1.883,1.887-4.179,2.829-6.889,2.829
		c-2.743,0-5.058-0.938-6.946-2.816c-1.887-1.877-2.831-4.149-2.831-6.815c0-1.776,0.43-3.425,1.29-4.941
		c0.859-1.519,2.032-2.706,3.517-3.566C232.654,419.253,234.261,418.824,235.989,418.824 M236.071,420.623
		c-1.369,0-2.666,0.356-3.892,1.069c-1.226,0.714-2.183,1.674-2.872,2.882c-0.688,1.209-1.032,2.555-1.032,4.04
		c0,2.198,0.761,4.055,2.285,5.57c1.524,1.514,3.362,2.271,5.511,2.271c1.436,0,2.765-0.349,3.986-1.045
		c1.222-0.696,2.175-1.647,2.86-2.855c0.684-1.208,1.027-2.552,1.027-4.028c0-1.467-0.343-2.796-1.027-3.983
		c-0.685-1.188-1.648-2.137-2.891-2.851C238.783,420.979,237.465,420.623,236.071,420.623"/>
	<path clip-path="url(#SVGID_2_)" fill="#3D3D3D" d="M236.14,438.752c-2.867,0-5.323-0.997-7.298-2.962
		c-1.977-1.967-2.979-4.379-2.979-7.17c0-1.856,0.456-3.602,1.354-5.188c0.901-1.589,2.146-2.852,3.702-3.751
		c1.555-0.901,3.261-1.357,5.07-1.357c2.925,0,5.41,0.992,7.386,2.949c1.977,1.958,2.98,4.399,2.98,7.259
		c0,2.833-1,5.271-2.972,7.245C241.412,437.75,238.975,438.752,236.14,438.752 M235.989,419.324c-1.631,0-3.168,0.411-4.569,1.222
		c-1.4,0.811-2.521,1.947-3.332,3.379c-0.813,1.435-1.225,3.015-1.225,4.696c0,2.516,0.903,4.689,2.684,6.461
		c1.781,1.772,4,2.671,6.593,2.671c2.56,0,4.759-0.901,6.535-2.683c1.778-1.78,2.68-3.979,2.68-6.538
		c0-2.582-0.903-4.785-2.683-6.548C240.889,420.219,238.641,419.324,235.989,419.324 M236.071,436.955
		c-2.277,0-4.25-0.813-5.863-2.417c-1.615-1.604-2.433-3.598-2.433-5.924c0-1.565,0.369-3.008,1.098-4.288
		c0.729-1.279,1.757-2.31,3.054-3.066c2.618-1.521,5.742-1.495,8.348-0.001c1.315,0.756,2.35,1.776,3.075,3.034
		c0.725,1.26,1.094,2.685,1.094,4.233c0,1.558-0.368,2.995-1.092,4.273c-0.727,1.282-1.752,2.307-3.047,3.046
		C239.012,436.581,237.588,436.955,236.071,436.955 M236.071,421.123c-1.273,0-2.498,0.337-3.641,1.001
		c-1.143,0.666-2.047,1.573-2.688,2.697c-0.642,1.127-0.967,2.404-0.967,3.793c0,2.079,0.699,3.784,2.138,5.215
		s3.126,2.126,5.158,2.126c1.341,0,2.599-0.33,3.739-0.979c1.136-0.648,2.035-1.545,2.672-2.669
		c0.638-1.126,0.962-2.399,0.962-3.781c0-1.373-0.324-2.629-0.96-3.734c-0.637-1.103-1.547-2-2.707-2.666
		C238.617,421.459,237.37,421.123,236.071,421.123"/>
	<path clip-path="url(#SVGID_2_)" fill="#3D3D3D" d="M251.594,434.342l1.572-0.942c1.107,2.037,2.385,3.055,3.836,3.055
		c0.62,0,1.202-0.144,1.748-0.433c0.544-0.289,0.959-0.678,1.244-1.163c0.286-0.487,0.428-1.002,0.428-1.547
		c0-0.62-0.209-1.229-0.629-1.823c-0.578-0.823-1.635-1.813-3.169-2.968c-1.542-1.166-2.502-2.009-2.88-2.529
		c-0.653-0.872-0.98-1.814-0.98-2.829c0-0.804,0.192-1.538,0.578-2.201c0.386-0.662,0.929-1.183,1.628-1.564
		c0.701-0.382,1.461-0.573,2.283-0.573c0.872,0,1.687,0.216,2.446,0.647c0.759,0.434,1.562,1.227,2.408,2.385l-1.509,1.143
		c-0.696-0.922-1.289-1.529-1.779-1.823c-0.491-0.293-1.025-0.438-1.603-0.438c-0.747,0-1.357,0.225-1.83,0.678
		c-0.474,0.453-0.711,1.011-0.711,1.673c0,0.402,0.084,0.792,0.252,1.169c0.167,0.377,0.473,0.788,0.917,1.232
		c0.244,0.235,1.04,0.852,2.39,1.849c1.601,1.184,2.699,2.234,3.295,3.156c0.595,0.923,0.893,1.849,0.893,2.78
		c0,1.341-0.51,2.506-1.528,3.496c-1.019,0.988-2.258,1.482-3.717,1.482c-1.123,0-2.142-0.3-3.055-0.897
		C253.208,436.754,252.364,435.75,251.594,434.342"/>
	<path clip-path="url(#SVGID_2_)" fill="#3D3D3D" d="M257.177,438.752c-1.217,0-2.337-0.33-3.33-0.98
		c-0.979-0.642-1.885-1.715-2.692-3.189l-0.231-0.421l2.432-1.459l0.249,0.458c1.007,1.854,2.149,2.795,3.396,2.795
		c0.542,0,1.037-0.124,1.514-0.376c0.465-0.248,0.808-0.566,1.047-0.975c0.242-0.412,0.359-0.836,0.359-1.294
		c0-0.521-0.175-1.021-0.537-1.535c-0.547-0.776-1.576-1.736-3.061-2.856c-1.599-1.209-2.575-2.07-2.984-2.634
		c-0.713-0.95-1.076-2.002-1.076-3.122c0-0.892,0.217-1.717,0.646-2.454c0.43-0.738,1.043-1.328,1.821-1.753
		c1.593-0.866,3.599-0.838,5.215,0.081c0.83,0.472,1.669,1.297,2.565,2.521l0.29,0.397l-2.3,1.744l-0.302-0.401
		c-0.654-0.865-1.204-1.437-1.637-1.695c-0.415-0.248-0.855-0.368-1.346-0.368c-0.619,0-1.105,0.178-1.485,0.54
		c-0.374,0.357-0.556,0.787-0.556,1.312c0,0.329,0.071,0.655,0.209,0.966c0.142,0.32,0.416,0.684,0.814,1.082
		c0.15,0.146,0.682,0.58,2.333,1.8c1.666,1.23,2.784,2.307,3.418,3.287c0.646,1.001,0.973,2.027,0.973,3.051
		c0,1.476-0.565,2.772-1.68,3.854C260.131,438.207,258.764,438.752,257.177,438.752 M252.27,434.519
		c0.662,1.113,1.376,1.925,2.125,2.417c0.827,0.541,1.763,0.816,2.782,0.816c1.336,0,2.438-0.439,3.368-1.342
		c0.926-0.9,1.376-1.926,1.376-3.138c0-0.828-0.274-1.672-0.814-2.509c-0.558-0.865-1.626-1.884-3.17-3.023
		c-1.381-1.021-2.179-1.64-2.441-1.893c-0.497-0.498-0.831-0.95-1.027-1.389c-0.196-0.44-0.295-0.901-0.295-1.372
		c0-0.8,0.291-1.485,0.865-2.034c0.567-0.543,1.299-0.817,2.176-0.817c0.667,0,1.293,0.173,1.859,0.511
		c0.474,0.284,1.005,0.794,1.615,1.555l0.717-0.544c-0.691-0.883-1.347-1.505-1.955-1.851c-1.316-0.749-2.953-0.773-4.243-0.071
		c-0.623,0.34-1.093,0.791-1.435,1.377c-0.343,0.591-0.51,1.229-0.51,1.951c0,0.911,0.288,1.737,0.881,2.528
		c0.242,0.333,0.916,1.02,2.781,2.43c1.59,1.197,2.662,2.206,3.276,3.079c0.478,0.677,0.72,1.387,0.72,2.11
		c0,0.632-0.167,1.237-0.496,1.8c-0.331,0.564-0.816,1.02-1.442,1.352c-0.616,0.327-1.282,0.493-1.982,0.493
		c-1.524,0-2.874-0.963-4.016-2.865L252.27,434.519z"/>
	<rect x="281.079" y="419.29" clip-path="url(#SVGID_2_)" fill="#3D3D3D" width="1.849" height="18.498"/>
	<path clip-path="url(#SVGID_2_)" fill="#3D3D3D" d="M283.427,438.288h-2.849V418.79h2.849V438.288z M281.579,437.288h0.849V419.79
		h-0.849V437.288z"/>
	<path clip-path="url(#SVGID_2_)" fill="#3D3D3D" d="M291.206,419.29h3.685c2.054,0,3.446,0.084,4.175,0.252
		c1.098,0.252,1.991,0.791,2.678,1.618c0.688,0.827,1.032,1.844,1.032,3.053c0,1.008-0.237,1.894-0.711,2.658
		c-0.473,0.763-1.151,1.34-2.031,1.729c-0.88,0.392-2.096,0.59-3.646,0.6l6.652,8.588h-2.287L294.1,429.2h-1.045v8.588h-1.849
		V419.29z M293.055,421.1v6.288l3.187,0.025c1.234,0,2.147-0.118,2.739-0.353c0.592-0.233,1.054-0.609,1.386-1.126
		c0.332-0.515,0.497-1.092,0.497-1.729c0-0.621-0.168-1.185-0.503-1.691c-0.337-0.508-0.777-0.87-1.323-1.088
		c-0.546-0.218-1.453-0.327-2.721-0.327H293.055z"/>
	<path clip-path="url(#SVGID_2_)" fill="#3D3D3D" d="M304.059,438.289h-3.551l-6.653-8.589h-0.3v8.589h-2.849V418.79h4.185
		c2.111,0,3.514,0.086,4.288,0.265c1.201,0.276,2.194,0.876,2.95,1.784c0.761,0.916,1.147,2.051,1.147,3.374
		c0,1.098-0.264,2.08-0.786,2.921c-0.525,0.847-1.284,1.494-2.253,1.924c-0.75,0.333-1.69,0.533-2.855,0.608L304.059,438.289z
		 M300.998,437.289h1.022l-6.648-8.584l1.013-0.005c1.475-0.01,2.634-0.196,3.447-0.557c0.793-0.352,1.385-0.854,1.808-1.537
		c0.422-0.68,0.636-1.484,0.636-2.394c0-1.098-0.3-1.993-0.916-2.734c-0.621-0.746-1.408-1.221-2.406-1.448
		c-0.69-0.159-2.056-0.24-4.063-0.24h-3.185v17.499h0.849V428.7h1.79L300.998,437.289z M296.242,427.914l-3.687-0.029V420.6h3.762
		c1.344,0,2.294,0.118,2.906,0.362c0.64,0.255,1.163,0.685,1.555,1.277c0.389,0.588,0.586,1.25,0.586,1.967
		c0,0.732-0.194,1.406-0.578,1.999c-0.387,0.604-0.933,1.048-1.621,1.321C298.506,427.788,297.55,427.914,296.242,427.914
		 M293.555,426.892l2.69,0.021c1.16,0,2.02-0.107,2.552-0.317c0.497-0.197,0.872-0.502,1.149-0.932
		c0.281-0.437,0.418-0.913,0.418-1.458c0-0.525-0.138-0.988-0.42-1.416c-0.282-0.423-0.639-0.718-1.091-0.899
		c-0.334-0.133-1.044-0.291-2.536-0.291h-2.762V426.892z"/>
	<path clip-path="url(#SVGID_2_)" fill="#3D3D3D" d="M319.836,434.342l1.572-0.942c1.107,2.037,2.385,3.055,3.836,3.055
		c0.62,0,1.202-0.144,1.748-0.433c0.544-0.289,0.959-0.678,1.244-1.163c0.286-0.487,0.428-1.002,0.428-1.547
		c0-0.62-0.209-1.229-0.629-1.823c-0.578-0.823-1.635-1.813-3.169-2.968c-1.542-1.166-2.502-2.009-2.88-2.529
		c-0.653-0.872-0.98-1.814-0.98-2.829c0-0.804,0.192-1.538,0.578-2.201c0.386-0.662,0.929-1.183,1.628-1.564
		c0.701-0.382,1.461-0.573,2.283-0.573c0.872,0,1.687,0.216,2.446,0.647c0.759,0.434,1.562,1.227,2.408,2.385l-1.509,1.143
		c-0.696-0.922-1.289-1.529-1.779-1.823c-0.491-0.293-1.025-0.438-1.603-0.438c-0.747,0-1.357,0.225-1.83,0.678
		c-0.474,0.453-0.711,1.011-0.711,1.673c0,0.402,0.084,0.792,0.252,1.169c0.167,0.377,0.473,0.788,0.917,1.232
		c0.244,0.235,1.04,0.852,2.39,1.849c1.601,1.184,2.699,2.234,3.295,3.156c0.595,0.923,0.893,1.849,0.893,2.78
		c0,1.341-0.51,2.506-1.528,3.496c-1.019,0.988-2.258,1.482-3.717,1.482c-1.123,0-2.142-0.3-3.055-0.897
		C321.451,436.754,320.607,435.75,319.836,434.342"/>
	<path clip-path="url(#SVGID_2_)" fill="#3D3D3D" d="M325.42,438.752c-1.217,0-2.337-0.33-3.33-0.98
		c-0.979-0.642-1.885-1.715-2.692-3.189l-0.231-0.421l2.432-1.459l0.249,0.458c1.007,1.854,2.149,2.795,3.396,2.795
		c0.542,0,1.037-0.124,1.514-0.376c0.465-0.248,0.808-0.566,1.047-0.975c0.242-0.412,0.359-0.836,0.359-1.294
		c0-0.521-0.175-1.021-0.537-1.535c-0.547-0.776-1.576-1.736-3.061-2.856c-1.599-1.209-2.575-2.07-2.984-2.634
		c-0.713-0.95-1.076-2.002-1.076-3.122c0-0.892,0.217-1.717,0.646-2.454c0.43-0.738,1.043-1.328,1.821-1.753
		c1.593-0.866,3.6-0.838,5.215,0.081c0.83,0.472,1.669,1.297,2.565,2.521l0.29,0.397l-2.3,1.744l-0.302-0.401
		c-0.654-0.865-1.204-1.437-1.637-1.695c-0.415-0.248-0.855-0.368-1.346-0.368c-0.619,0-1.105,0.178-1.485,0.54
		c-0.374,0.357-0.556,0.787-0.556,1.312c0,0.329,0.071,0.655,0.209,0.966c0.142,0.32,0.416,0.684,0.814,1.082
		c0.15,0.146,0.682,0.58,2.333,1.8c1.666,1.23,2.784,2.307,3.418,3.287c0.646,1.001,0.973,2.027,0.973,3.051
		c0,1.476-0.565,2.772-1.68,3.854C328.375,438.207,327.007,438.752,325.42,438.752 M320.513,434.519
		c0.662,1.113,1.376,1.925,2.125,2.417c0.827,0.541,1.763,0.816,2.782,0.816c1.336,0,2.438-0.439,3.368-1.342
		c0.926-0.9,1.376-1.926,1.376-3.138c0-0.828-0.274-1.672-0.814-2.509c-0.558-0.865-1.626-1.884-3.17-3.023
		c-1.381-1.021-2.179-1.64-2.441-1.893c-0.497-0.498-0.831-0.95-1.027-1.389c-0.196-0.44-0.295-0.901-0.295-1.372
		c0-0.8,0.291-1.485,0.865-2.034c0.567-0.543,1.299-0.817,2.176-0.817c0.667,0,1.293,0.173,1.859,0.511
		c0.474,0.284,1.005,0.794,1.615,1.555l0.717-0.544c-0.691-0.883-1.347-1.505-1.955-1.851c-1.317-0.749-2.953-0.773-4.243-0.071
		c-0.623,0.34-1.093,0.791-1.435,1.377c-0.343,0.591-0.51,1.229-0.51,1.951c0,0.911,0.288,1.737,0.881,2.528
		c0.242,0.333,0.916,1.02,2.781,2.43c1.59,1.197,2.662,2.206,3.276,3.079c0.478,0.677,0.72,1.387,0.72,2.11
		c0,0.632-0.167,1.237-0.496,1.8c-0.331,0.564-0.816,1.02-1.442,1.352c-0.616,0.327-1.282,0.493-1.982,0.493
		c-1.524,0-2.874-0.963-4.016-2.865L320.513,434.519z"/>
	<path clip-path="url(#SVGID_2_)" fill="#3D3D3D" d="M346.073,419.29l8.627,18.498h-1.996l-2.91-6.087h-7.969l-2.881,6.087h-2.063
		l8.74-18.498H346.073z M345.84,423.219l-3.169,6.696h6.324L345.84,423.219z"/>
	<path clip-path="url(#SVGID_2_)" fill="#3D3D3D" d="M355.484,438.288h-3.096l-2.909-6.087h-7.338l-2.882,6.087h-3.168l9.212-19.498
		h1.088L355.484,438.288z M353.018,437.288h0.897l-8.07-17.304l-8.176,17.304h0.958l2.881-6.087h8.6L353.018,437.288z
		 M349.782,430.416h-7.902l3.96-8.367L349.782,430.416z M343.46,429.416h4.746l-2.368-5.024L343.46,429.416z"/>
	<polygon clip-path="url(#SVGID_2_)" fill="#3D3D3D" points="360.099,419.29 362.111,419.29 368.242,433.581 374.473,419.29 
		376.484,419.29 368.437,437.788 368.034,437.788 	"/>
	<path clip-path="url(#SVGID_2_)" fill="#3D3D3D" d="M368.764,438.288h-1.059l-8.365-19.498h3.101l5.805,13.531l5.899-13.531h3.102
		L368.764,438.288z M360.858,419.79l7.379,17.203l7.485-17.203H374.8l-6.562,15.051l-6.457-15.051H360.858z"/>
	<rect x="383.267" y="419.29" clip-path="url(#SVGID_2_)" fill="#3D3D3D" width="1.849" height="18.498"/>
	<path clip-path="url(#SVGID_2_)" fill="#3D3D3D" d="M385.616,438.288h-2.849V418.79h2.849V438.288z M383.767,437.288h0.849V419.79
		h-0.849V437.288z"/>
	<path clip-path="url(#SVGID_2_)" fill="#3D3D3D" d="M393.395,419.29h3.685c2.054,0,3.445,0.084,4.175,0.252
		c1.098,0.252,1.991,0.791,2.678,1.618c0.688,0.827,1.032,1.844,1.032,3.053c0,1.008-0.238,1.894-0.711,2.658
		c-0.474,0.763-1.151,1.34-2.031,1.729c-0.88,0.392-2.095,0.59-3.646,0.6l6.651,8.588h-2.286l-6.653-8.588h-1.045v8.588h-1.849
		V419.29z M395.243,421.1v6.288l3.188,0.025c1.234,0,2.147-0.118,2.739-0.353c0.593-0.233,1.054-0.609,1.386-1.126
		c0.332-0.515,0.498-1.092,0.498-1.729c0-0.621-0.168-1.185-0.504-1.691c-0.336-0.508-0.778-0.87-1.324-1.088
		c-0.545-0.218-1.452-0.327-2.72-0.327H395.243z"/>
	<path clip-path="url(#SVGID_2_)" fill="#3D3D3D" d="M406.248,438.289h-3.551l-6.653-8.589h-0.3v8.589h-2.849V418.79h4.185
		c2.111,0,3.513,0.086,4.287,0.265c1.202,0.276,2.195,0.876,2.951,1.784c0.761,0.916,1.147,2.051,1.147,3.374
		c0,1.097-0.265,2.079-0.786,2.921c-0.526,0.848-1.284,1.494-2.253,1.924c-0.75,0.333-1.69,0.533-2.855,0.608L406.248,438.289z
		 M403.187,437.289h1.022l-6.648-8.584l1.013-0.005c1.474-0.01,2.634-0.196,3.447-0.557c0.793-0.352,1.384-0.854,1.808-1.537
		c0.422-0.681,0.636-1.484,0.636-2.394c0-1.098-0.3-1.993-0.916-2.734c-0.621-0.746-1.408-1.221-2.406-1.448
		c-0.69-0.159-2.057-0.24-4.063-0.24h-3.185v17.499h0.849V428.7h1.79L403.187,437.289z M398.431,427.914l-3.688-0.029V420.6h3.762
		c1.344,0,2.295,0.118,2.906,0.362c0.64,0.256,1.164,0.686,1.555,1.277c0.389,0.588,0.587,1.25,0.587,1.967
		c0,0.732-0.195,1.406-0.579,1.999c-0.387,0.604-0.933,1.048-1.621,1.321C400.694,427.788,399.738,427.914,398.431,427.914
		 M395.743,426.892l2.69,0.021c1.16,0,2.02-0.107,2.552-0.317c0.497-0.197,0.873-0.501,1.149-0.932
		c0.282-0.437,0.419-0.914,0.419-1.458c0-0.525-0.138-0.988-0.421-1.415c-0.281-0.424-0.638-0.718-1.092-0.9
		c-0.333-0.133-1.043-0.291-2.535-0.291h-2.762V426.892z"/>
	<polygon clip-path="url(#SVGID_2_)" fill="#3D3D3D" points="412.878,419.29 423.479,419.29 423.479,421.101 414.727,421.101 
		414.727,426.897 423.403,426.897 423.403,428.708 414.727,428.708 414.727,435.977 423.403,435.977 423.403,437.788 
		412.878,437.788 	"/>
	<path clip-path="url(#SVGID_2_)" fill="#3D3D3D" d="M423.903,438.288h-11.525V418.79h11.602v2.811h-8.752v4.797h8.676v2.812h-8.676
		v6.269h8.676V438.288z M413.378,437.288h9.525v-0.811h-8.676v-8.269h8.676v-0.812h-8.676v-6.796h8.752v-0.812h-9.602V437.288z"/>
	<path clip-path="url(#SVGID_2_)" fill="#3D3D3D" d="M438.171,419.29l8.627,18.498h-1.997l-2.909-6.087h-7.969l-2.881,6.087h-2.063
		l8.74-18.498H438.171z M437.938,423.219l-3.17,6.696h6.324L437.938,423.219z"/>
	<path clip-path="url(#SVGID_2_)" fill="#3D3D3D" d="M447.583,438.288h-3.098l-2.908-6.087h-7.337l-2.883,6.087h-3.168l9.213-19.498
		h1.088L447.583,438.288z M445.117,437.288h0.896l-8.069-17.304l-8.176,17.304h0.957l2.882-6.087h8.601L445.117,437.288z
		 M441.88,430.416h-7.902l3.961-8.367L441.88,430.416z M435.558,429.416h4.746l-2.367-5.024L435.558,429.416z"/>
	<polygon clip-path="url(#SVGID_2_)" fill="#3D3D3D" points="453.605,419.29 455.455,419.29 455.455,436.001 462.571,436.001 
		462.571,437.788 453.605,437.788 	"/>
	<path clip-path="url(#SVGID_2_)" fill="#3D3D3D" d="M463.071,438.288h-9.966V418.79h2.85v16.712h7.116V438.288z M454.105,437.288
		h7.966v-0.786h-7.116V419.79h-0.85V437.288z"/>
	<rect x="469.179" y="419.29" clip-path="url(#SVGID_2_)" fill="#3D3D3D" width="1.85" height="18.498"/>
	<path clip-path="url(#SVGID_2_)" fill="#3D3D3D" d="M471.528,438.288h-2.85V418.79h2.85V438.288z M469.679,437.288h0.85V419.79
		h-0.85V437.288z"/>
	<polygon clip-path="url(#SVGID_2_)" fill="#3D3D3D" points="478.488,421.075 478.488,419.29 488.247,419.29 480.519,435.977 
		487.857,435.977 487.857,437.788 477.658,437.788 485.453,421.075 	"/>
	<path clip-path="url(#SVGID_2_)" fill="#3D3D3D" d="M488.357,438.288h-11.483l7.795-16.713h-6.681v-2.785h11.041l-7.729,16.688
		h7.057V438.288z M478.443,437.288h8.914v-0.811h-7.621l7.729-16.688h-8.477v0.785h7.25L478.443,437.288z"/>
	<path clip-path="url(#SVGID_2_)" fill="#3D3D3D" d="M503.064,419.29l8.627,18.498h-1.997l-2.909-6.087h-7.969l-2.881,6.087h-2.063
		l8.74-18.498H503.064z M502.831,423.219l-3.17,6.696h6.324L502.831,423.219z"/>
	<path clip-path="url(#SVGID_2_)" fill="#3D3D3D" d="M512.477,438.288h-3.098l-2.908-6.087h-7.337l-2.883,6.087h-3.168l9.214-19.498
		h1.087L512.477,438.288z M510.011,437.288h0.896l-8.069-17.304l-8.176,17.304h0.957l2.882-6.087h8.601L510.011,437.288z
		 M506.773,430.416h-7.902l3.961-8.367L506.773,430.416z M500.451,429.416h4.746l-2.367-5.024L500.451,429.416z"/>
	<path clip-path="url(#SVGID_2_)" fill="#3D3D3D" d="M535.728,422.722l-1.459,1.119c-0.805-1.048-1.771-1.842-2.897-2.383
		c-1.128-0.541-2.367-0.812-3.717-0.812c-1.476,0-2.843,0.354-4.1,1.063c-1.258,0.708-2.232,1.659-2.924,2.854
		c-0.692,1.194-1.038,2.538-1.038,4.03c0,2.255,0.774,4.137,2.321,5.647c1.546,1.508,3.498,2.263,5.853,2.263
		c2.591,0,4.758-1.014,6.502-3.044l1.459,1.107c-0.923,1.174-2.073,2.081-3.452,2.722c-1.379,0.642-2.92,0.962-4.621,0.962
		c-3.236,0-5.789-1.077-7.658-3.231c-1.568-1.819-2.353-4.016-2.353-6.59c0-2.707,0.95-4.984,2.85-6.834
		c1.897-1.849,4.276-2.772,7.136-2.772c1.727,0,3.287,0.341,4.678,1.024C533.699,420.534,534.839,421.491,535.728,422.722"/>
	<path clip-path="url(#SVGID_2_)" fill="#3D3D3D" d="M527.654,438.753c-3.372,0-6.076-1.146-8.037-3.405
		c-1.641-1.905-2.473-4.232-2.473-6.917c0-2.834,1.009-5.253,3-7.192c1.985-1.935,4.505-2.915,7.484-2.915
		c1.796,0,3.444,0.362,4.898,1.076c1.46,0.718,2.674,1.737,3.605,3.029l0.284,0.394l-2.24,1.719l-0.305-0.396
		c-0.752-0.979-1.667-1.732-2.719-2.237c-1.054-0.506-2.231-0.762-3.499-0.762c-1.381,0-2.678,0.336-3.854,0.999
		c-1.174,0.66-2.095,1.559-2.736,2.669c-0.646,1.112-0.972,2.383-0.972,3.78c0,2.134,0.71,3.863,2.17,5.289
		c1.442,1.407,3.296,2.122,5.505,2.122c2.46,0,4.463-0.94,6.122-2.87l0.307-0.357l2.24,1.698l-0.315,0.4
		c-0.969,1.231-2.192,2.196-3.635,2.866C531.048,438.413,529.422,438.753,527.654,438.753 M527.629,419.324
		c-2.711,0-4.994,0.885-6.788,2.632c-1.79,1.742-2.696,3.922-2.696,6.476c0,2.438,0.75,4.545,2.229,6.264
		c1.761,2.028,4.211,3.059,7.28,3.059c1.621,0,3.104-0.31,4.411-0.915c1.142-0.532,2.13-1.267,2.943-2.188l-0.676-0.512
		c-1.782,1.902-3.989,2.868-6.565,2.868c-2.48,0-4.567-0.811-6.202-2.407c-1.642-1.601-2.473-3.62-2.473-6.004
		c0-1.575,0.372-3.016,1.105-4.281c0.733-1.267,1.781-2.29,3.112-3.039c1.325-0.749,2.787-1.128,4.344-1.128
		c1.418,0,2.742,0.289,3.932,0.861c1.051,0.504,1.979,1.223,2.766,2.14l0.676-0.519c-0.791-0.978-1.778-1.761-2.941-2.331
		C530.771,419.651,529.271,419.324,527.629,419.324"/>
	<rect x="543.114" y="419.29" clip-path="url(#SVGID_2_)" fill="#3D3D3D" width="1.849" height="18.498"/>
	<path clip-path="url(#SVGID_2_)" fill="#3D3D3D" d="M545.463,438.288h-2.849V418.79h2.849V438.288z M543.614,437.288h0.849V419.79
		h-0.849V437.288z"/>
	<path clip-path="url(#SVGID_2_)" fill="#3D3D3D" d="M559.202,419.29h1.849v12.487c0,1.92-0.149,3.255-0.446,4.005
		c-0.298,0.75-0.795,1.35-1.49,1.799c-0.696,0.448-1.539,0.672-2.528,0.672c-0.746,0-1.481-0.145-2.207-0.434
		c-0.725-0.289-1.527-0.799-2.407-1.527l0.98-1.472c0.966,0.679,1.77,1.157,2.406,1.434c0.42,0.185,0.832,0.276,1.236,0.276
		c0.528,0,1.009-0.159,1.441-0.477c0.434-0.319,0.735-0.742,0.907-1.271c0.172-0.527,0.259-1.551,0.259-3.068V419.29z"/>
	<path clip-path="url(#SVGID_2_)" fill="#3D3D3D" d="M556.586,438.752c-0.805,0-1.61-0.158-2.391-0.469
		c-0.77-0.307-1.625-0.848-2.543-1.607l-0.348-0.287l1.516-2.272l0.42,0.295c0.935,0.656,1.714,1.122,2.317,1.383
		c0.809,0.355,1.562,0.313,2.184-0.146c0.349-0.257,0.587-0.592,0.727-1.022c0.108-0.328,0.235-1.1,0.235-2.913v-12.923h2.848
		v12.986c0,2-0.157,3.37-0.48,4.188c-0.337,0.846-0.903,1.531-1.685,2.035C558.61,438.5,557.669,438.752,556.586,438.752
		 M552.641,436.188c0.701,0.545,1.349,0.938,1.924,1.166c1.528,0.61,3.202,0.5,4.279-0.193c0.611-0.396,1.035-0.907,1.296-1.563
		c0.272-0.688,0.411-1.974,0.411-3.82v-11.986h-0.848v11.923c0,1.584-0.094,2.638-0.284,3.223c-0.204,0.628-0.569,1.14-1.087,1.52
		c-0.902,0.664-2.045,0.752-3.174,0.255c-0.567-0.245-1.263-0.646-2.071-1.191L552.641,436.188z"/>
	<path clip-path="url(#SVGID_2_)" fill="#3D3D3D" d="M578.302,418.824c2.802,0,5.146,0.936,7.034,2.805s2.832,4.171,2.832,6.903
		c0,2.708-0.942,5.006-2.825,6.892c-1.884,1.887-4.18,2.829-6.89,2.829c-2.743,0-5.059-0.938-6.946-2.816
		c-1.888-1.877-2.831-4.149-2.831-6.815c0-1.776,0.43-3.425,1.29-4.941c0.859-1.519,2.032-2.706,3.518-3.566
		C574.968,419.253,576.574,418.824,578.302,418.824 M578.384,420.623c-1.368,0-2.666,0.356-3.892,1.069
		c-1.227,0.714-2.184,1.674-2.872,2.882c-0.688,1.209-1.033,2.555-1.033,4.04c0,2.198,0.763,4.055,2.286,5.57
		c1.525,1.514,3.362,2.271,5.511,2.271c1.437,0,2.766-0.349,3.986-1.045c1.222-0.696,2.175-1.647,2.86-2.855
		c0.684-1.208,1.025-2.552,1.025-4.028c0-1.467-0.342-2.796-1.025-3.983c-0.686-1.188-1.649-2.137-2.892-2.851
		C581.096,420.979,579.779,420.623,578.384,420.623"/>
	<path clip-path="url(#SVGID_2_)" fill="#3D3D3D" d="M578.453,438.752c-2.867,0-5.323-0.997-7.298-2.962
		c-1.978-1.967-2.979-4.379-2.979-7.17c0-1.856,0.456-3.603,1.355-5.188c0.899-1.588,2.145-2.852,3.701-3.751
		c1.555-0.901,3.261-1.357,5.069-1.357c2.925,0,5.409,0.992,7.386,2.949c1.978,1.958,2.98,4.4,2.98,7.259
		c0,2.832-1,5.271-2.972,7.245S581.288,438.752,578.453,438.752 M578.302,419.324c-1.631,0-3.168,0.411-4.568,1.222
		s-2.521,1.947-3.331,3.379c-0.814,1.434-1.227,3.014-1.227,4.696c0,2.517,0.903,4.69,2.685,6.461c1.78,1.772,4,2.671,6.593,2.671
		c2.56,0,4.759-0.901,6.536-2.683c1.777-1.78,2.679-3.98,2.679-6.538c0-2.582-0.903-4.785-2.683-6.548
		C583.201,420.219,580.953,419.324,578.302,419.324 M578.384,436.955c-2.275,0-4.249-0.813-5.862-2.417
		c-1.616-1.604-2.435-3.599-2.435-5.924c0-1.565,0.37-3.008,1.099-4.288c0.729-1.279,1.758-2.31,3.055-3.066
		c2.617-1.521,5.74-1.496,8.348-0.001c1.316,0.757,2.35,1.776,3.075,3.034c0.725,1.26,1.093,2.684,1.093,4.233
		c0,1.558-0.367,2.996-1.092,4.273c-0.725,1.282-1.751,2.307-3.046,3.046C581.325,436.581,579.901,436.955,578.384,436.955
		 M578.384,421.123c-1.271,0-2.498,0.337-3.641,1.001c-1.144,0.666-2.047,1.573-2.688,2.697c-0.643,1.128-0.968,2.404-0.968,3.793
		c0,2.078,0.699,3.784,2.139,5.215s3.127,2.126,5.158,2.126c1.341,0,2.6-0.33,3.738-0.979c1.137-0.648,2.036-1.546,2.673-2.669
		c0.638-1.125,0.961-2.398,0.961-3.781c0-1.373-0.323-2.63-0.96-3.734c-0.636-1.103-1.546-2-2.706-2.666
		S579.683,421.123,578.384,421.123"/>
	<path clip-path="url(#SVGID_2_)" fill="#3D3D3D" d="M593.906,434.342l1.571-0.942c1.107,2.037,2.386,3.055,3.836,3.055
		c0.62,0,1.203-0.144,1.748-0.433s0.96-0.678,1.245-1.163c0.285-0.487,0.427-1.002,0.427-1.547c0-0.62-0.209-1.229-0.628-1.823
		c-0.579-0.823-1.635-1.813-3.169-2.968c-1.543-1.166-2.503-2.009-2.88-2.529c-0.654-0.872-0.981-1.814-0.981-2.829
		c0-0.804,0.193-1.538,0.579-2.201c0.385-0.662,0.928-1.183,1.628-1.564s1.461-0.573,2.282-0.573c0.872,0,1.688,0.216,2.446,0.647
		c0.759,0.434,1.562,1.227,2.408,2.385l-1.509,1.143c-0.695-0.922-1.289-1.529-1.779-1.823c-0.491-0.293-1.025-0.438-1.604-0.438
		c-0.746,0-1.355,0.225-1.83,0.678c-0.474,0.453-0.71,1.011-0.71,1.673c0,0.402,0.083,0.792,0.251,1.169s0.475,0.788,0.918,1.232
		c0.243,0.235,1.04,0.852,2.391,1.849c1.6,1.184,2.698,2.234,3.295,3.156c0.594,0.923,0.892,1.849,0.892,2.78
		c0,1.341-0.51,2.506-1.528,3.496c-1.019,0.988-2.257,1.482-3.716,1.482c-1.123,0-2.142-0.3-3.056-0.897
		C595.52,436.754,594.678,435.75,593.906,434.342"/>
	<path clip-path="url(#SVGID_2_)" fill="#3D3D3D" d="M599.489,438.752c-1.216,0-2.337-0.33-3.33-0.98
		c-0.979-0.643-1.885-1.716-2.691-3.189l-0.23-0.421l2.431-1.459l0.249,0.458c1.008,1.854,2.15,2.795,3.396,2.795
		c0.536,0,1.044-0.127,1.514-0.376c0.466-0.248,0.809-0.566,1.048-0.975c0.241-0.412,0.358-0.836,0.358-1.294
		c0-0.521-0.175-1.021-0.537-1.535c-0.547-0.777-1.576-1.737-3.061-2.856c-1.6-1.209-2.574-2.07-2.984-2.634
		c-0.712-0.95-1.076-2.002-1.076-3.122c0-0.891,0.218-1.715,0.647-2.454c0.429-0.738,1.042-1.328,1.82-1.753
		c1.593-0.866,3.603-0.838,5.215,0.081c0.83,0.472,1.668,1.297,2.564,2.521l0.29,0.397l-2.299,1.744l-0.303-0.401
		c-0.653-0.865-1.203-1.437-1.637-1.695c-0.415-0.248-0.855-0.368-1.347-0.368c-0.619,0-1.104,0.178-1.484,0.54
		c-0.374,0.357-0.556,0.786-0.556,1.312c0,0.336,0.069,0.652,0.208,0.965c0.143,0.321,0.417,0.685,0.814,1.083
		c0.149,0.144,0.681,0.579,2.333,1.8c1.666,1.23,2.784,2.307,3.418,3.287c0.646,1.002,0.973,2.027,0.973,3.051
		c0,1.476-0.565,2.771-1.679,3.854C602.443,438.207,601.076,438.752,599.489,438.752 M594.583,434.519
		c0.661,1.112,1.375,1.925,2.125,2.417c0.827,0.541,1.763,0.816,2.781,0.816c1.336,0,2.438-0.439,3.367-1.342
		c0.927-0.9,1.377-1.927,1.377-3.138c0-0.828-0.273-1.672-0.813-2.509c-0.56-0.865-1.627-1.883-3.172-3.023
		c-1.841-1.361-2.273-1.732-2.439-1.893c-0.498-0.498-0.832-0.95-1.028-1.389c-0.195-0.438-0.294-0.899-0.294-1.372
		c0-0.801,0.291-1.485,0.865-2.034c0.566-0.543,1.298-0.817,2.175-0.817c0.667,0,1.292,0.172,1.859,0.511
		c0.475,0.284,1.006,0.794,1.615,1.555l0.717-0.543c-0.69-0.884-1.348-1.506-1.955-1.852c-1.314-0.749-2.952-0.774-4.242-0.071
		c-0.625,0.34-1.094,0.791-1.435,1.377c-0.34,0.583-0.512,1.24-0.512,1.951c0,0.911,0.288,1.737,0.882,2.527
		c0.241,0.334,0.915,1.021,2.781,2.431c1.589,1.196,2.66,2.205,3.277,3.079c0.476,0.677,0.718,1.387,0.718,2.11
		c0,0.632-0.167,1.236-0.495,1.799c-0.332,0.566-0.817,1.021-1.442,1.353c-0.614,0.327-1.281,0.493-1.982,0.493
		c-1.523,0-2.873-0.963-4.017-2.865L594.583,434.519z"/>
	<path clip-path="url(#SVGID_2_)" fill="#3D3D3D" d="M640.884,422.722l-1.459,1.119c-0.805-1.048-1.771-1.842-2.897-2.383
		c-1.128-0.541-2.367-0.812-3.717-0.812c-1.476,0-2.843,0.354-4.1,1.063c-1.258,0.708-2.232,1.659-2.924,2.854
		c-0.692,1.194-1.038,2.538-1.038,4.03c0,2.255,0.774,4.137,2.321,5.647c1.546,1.508,3.498,2.263,5.853,2.263
		c2.591,0,4.758-1.014,6.502-3.044l1.459,1.107c-0.923,1.174-2.073,2.081-3.452,2.722c-1.379,0.642-2.92,0.962-4.621,0.962
		c-3.236,0-5.789-1.077-7.658-3.231c-1.568-1.819-2.353-4.016-2.353-6.59c0-2.707,0.95-4.984,2.85-6.834
		c1.897-1.849,4.276-2.772,7.136-2.772c1.727,0,3.287,0.341,4.678,1.024C638.855,420.534,639.995,421.491,640.884,422.722"/>
	<path clip-path="url(#SVGID_2_)" fill="#3D3D3D" d="M632.811,438.753c-3.372,0-6.076-1.146-8.037-3.405
		c-1.642-1.905-2.473-4.232-2.473-6.917c0-2.834,1.009-5.253,3-7.192c1.985-1.935,4.505-2.915,7.484-2.915
		c1.796,0,3.444,0.362,4.898,1.076c1.46,0.718,2.674,1.737,3.605,3.029l0.284,0.394l-2.24,1.719l-0.305-0.396
		c-0.752-0.979-1.667-1.732-2.719-2.237c-1.054-0.506-2.231-0.762-3.499-0.762c-1.381,0-2.679,0.336-3.854,0.999
		c-1.174,0.66-2.095,1.559-2.736,2.669c-0.646,1.112-0.972,2.383-0.972,3.78c0,2.134,0.71,3.863,2.17,5.289
		c1.442,1.407,3.295,2.122,5.504,2.122c2.46,0,4.464-0.94,6.123-2.87l0.307-0.357l2.239,1.698l-0.314,0.4
		c-0.969,1.231-2.192,2.196-3.635,2.866C636.204,438.413,634.578,438.753,632.811,438.753 M632.785,419.324
		c-2.711,0-4.994,0.885-6.788,2.632c-1.79,1.742-2.696,3.922-2.696,6.476c0,2.438,0.75,4.545,2.229,6.264
		c1.761,2.028,4.211,3.059,7.28,3.059c1.621,0,3.104-0.31,4.411-0.915c1.142-0.532,2.13-1.267,2.943-2.188l-0.676-0.512
		c-1.782,1.902-3.989,2.868-6.566,2.868c-2.479,0-4.566-0.811-6.201-2.407c-1.642-1.601-2.473-3.62-2.473-6.004
		c0-1.575,0.372-3.016,1.105-4.281c0.733-1.267,1.78-2.29,3.112-3.039c1.325-0.749,2.787-1.128,4.344-1.128
		c1.418,0,2.742,0.289,3.932,0.861c1.051,0.504,1.979,1.223,2.765,2.14l0.677-0.519c-0.791-0.978-1.778-1.761-2.941-2.331
		C635.928,419.651,634.428,419.324,632.785,419.324"/>
	<polygon clip-path="url(#SVGID_2_)" fill="#3D3D3D" points="648.546,419.29 659.147,419.29 659.147,421.101 650.396,421.101 
		650.396,426.897 659.071,426.897 659.071,428.708 650.396,428.708 650.396,435.977 659.071,435.977 659.071,437.788 
		648.546,437.788 	"/>
	<path clip-path="url(#SVGID_2_)" fill="#3D3D3D" d="M659.571,438.288h-11.525V418.79h11.602v2.811h-8.752v4.797h8.676v2.812h-8.676
		v6.269h8.676V438.288z M649.046,437.288h9.525v-0.811h-8.676v-8.269h8.676v-0.812h-8.676v-6.796h8.752v-0.812h-9.602V437.288z"/>
	<polygon clip-path="url(#SVGID_2_)" fill="#3D3D3D" points="666.295,437.788 666.295,419.29 666.697,419.29 679.009,433.47 
		679.009,419.29 680.832,419.29 680.832,437.788 680.417,437.788 668.206,423.78 668.206,437.788 	"/>
	<path clip-path="url(#SVGID_2_)" fill="#3D3D3D" d="M681.332,438.288h-1.142l-11.484-13.174v13.174h-2.911V418.79h1.131
		l11.583,13.342V418.79h2.823V438.288z M666.795,437.288h0.911v-14.843l12.626,14.485V419.79h-0.823v15.019l-12.714-14.644V437.288z
		"/>
	<polygon clip-path="url(#SVGID_2_)" fill="#3D3D3D" points="687.438,421.1 687.438,419.29 697.573,419.29 697.573,421.1 
		693.448,421.1 693.448,437.788 691.563,437.788 691.563,421.1 	"/>
	<path clip-path="url(#SVGID_2_)" fill="#3D3D3D" d="M693.948,438.288h-2.886V421.6h-4.125v-2.811h11.136v2.811h-4.125V438.288z
		 M692.063,437.288h0.886v-16.687h4.125v-0.812h-9.136v0.812h4.125V437.288z"/>
	<path clip-path="url(#SVGID_2_)" fill="#3D3D3D" d="M704.28,419.29h3.685c2.055,0,3.445,0.084,4.175,0.252
		c1.099,0.252,1.991,0.791,2.679,1.618s1.031,1.844,1.031,3.053c0,1.008-0.237,1.894-0.711,2.658c-0.474,0.763-1.15,1.34-2.03,1.729
		c-0.88,0.392-2.096,0.59-3.647,0.6l6.652,8.588h-2.286l-6.653-8.588h-1.045v8.588h-1.849V419.29z M706.129,421.1v6.288l3.188,0.025
		c1.233,0,2.146-0.118,2.738-0.353c0.594-0.233,1.055-0.609,1.387-1.126c0.332-0.515,0.498-1.092,0.498-1.729
		c0-0.621-0.168-1.185-0.504-1.691c-0.337-0.508-0.778-0.87-1.324-1.088c-0.545-0.218-1.452-0.327-2.719-0.327H706.129z"/>
	<path clip-path="url(#SVGID_2_)" fill="#3D3D3D" d="M717.133,438.289h-3.551l-6.653-8.589h-0.3v8.589h-2.849V418.79h4.185
		c2.111,0,3.515,0.086,4.287,0.265c1.202,0.276,2.194,0.876,2.951,1.784c0.761,0.916,1.146,2.051,1.146,3.374
		c0,1.097-0.265,2.079-0.785,2.921c-0.526,0.848-1.284,1.494-2.253,1.924c-0.75,0.333-1.691,0.533-2.856,0.608L717.133,438.289z
		 M714.072,437.289h1.021l-6.648-8.584l1.013-0.005c1.476-0.01,2.635-0.196,3.447-0.557c0.794-0.352,1.385-0.854,1.809-1.537
		c0.422-0.681,0.636-1.484,0.636-2.394c0-1.098-0.3-1.993-0.916-2.734c-0.62-0.746-1.408-1.221-2.405-1.448
		c-0.69-0.159-2.057-0.24-4.063-0.24h-3.185v17.499h0.849V428.7h1.79L714.072,437.289z M709.316,427.914l-3.688-0.029V420.6h3.764
		c1.343,0,2.294,0.118,2.904,0.362c0.642,0.256,1.163,0.686,1.556,1.277c0.389,0.588,0.587,1.25,0.587,1.967
		c0,0.732-0.195,1.406-0.579,1.999c-0.387,0.604-0.933,1.048-1.622,1.321C711.58,427.788,710.624,427.914,709.316,427.914
		 M706.629,426.892l2.69,0.021c1.161,0,2.02-0.107,2.551-0.317c0.498-0.197,0.873-0.501,1.15-0.932
		c0.281-0.437,0.419-0.914,0.419-1.458c0-0.525-0.139-0.988-0.422-1.415c-0.28-0.424-0.638-0.718-1.092-0.9
		c-0.333-0.133-1.042-0.291-2.533-0.291h-2.764V426.892z"/>
	<path clip-path="url(#SVGID_2_)" fill="#3D3D3D" d="M731.31,419.29l8.627,18.498h-1.997l-2.909-6.087h-7.969l-2.881,6.087h-2.063
		l8.74-18.498H731.31z M731.076,423.219l-3.17,6.696h6.324L731.076,423.219z"/>
	<path clip-path="url(#SVGID_2_)" fill="#3D3D3D" d="M740.722,438.288h-3.098l-2.908-6.087h-7.337l-2.883,6.087h-3.168l9.213-19.498
		h1.088L740.722,438.288z M738.256,437.288h0.896l-8.069-17.304l-8.176,17.304h0.957l2.882-6.087h8.601L738.256,437.288z
		 M735.019,430.416h-7.902l3.961-8.367L735.019,430.416z M728.696,429.416h4.746l-2.367-5.024L728.696,429.416z"/>
	<path clip-path="url(#SVGID_2_)" fill="#3D3D3D" d="M744.833,434.342l1.571-0.942c1.107,2.037,2.386,3.055,3.836,3.055
		c0.62,0,1.203-0.144,1.748-0.433s0.96-0.678,1.245-1.163c0.285-0.487,0.427-1.002,0.427-1.547c0-0.62-0.209-1.229-0.628-1.823
		c-0.579-0.823-1.635-1.813-3.169-2.968c-1.543-1.166-2.503-2.009-2.88-2.529c-0.654-0.872-0.981-1.814-0.981-2.829
		c0-0.804,0.193-1.538,0.579-2.201c0.385-0.662,0.928-1.183,1.628-1.564s1.461-0.573,2.282-0.573c0.872,0,1.688,0.216,2.446,0.647
		c0.759,0.434,1.562,1.227,2.408,2.385l-1.509,1.143c-0.695-0.922-1.289-1.529-1.778-1.823c-0.492-0.293-1.026-0.438-1.604-0.438
		c-0.746,0-1.355,0.225-1.83,0.678c-0.474,0.453-0.71,1.011-0.71,1.673c0,0.402,0.083,0.792,0.251,1.169s0.475,0.788,0.918,1.232
		c0.243,0.235,1.04,0.852,2.391,1.849c1.6,1.184,2.698,2.234,3.295,3.156c0.594,0.923,0.892,1.849,0.892,2.78
		c0,1.341-0.51,2.506-1.528,3.496c-1.019,0.988-2.257,1.482-3.716,1.482c-1.123,0-2.142-0.3-3.056-0.897
		C746.446,436.754,745.604,435.75,744.833,434.342"/>
	<path clip-path="url(#SVGID_2_)" fill="#3D3D3D" d="M750.416,438.752c-1.216,0-2.337-0.33-3.33-0.98
		c-0.979-0.643-1.885-1.716-2.691-3.189l-0.23-0.421l2.431-1.459l0.249,0.458c1.008,1.854,2.15,2.795,3.396,2.795
		c0.535,0,1.044-0.127,1.514-0.376c0.466-0.248,0.809-0.566,1.048-0.975c0.241-0.412,0.358-0.836,0.358-1.294
		c0-0.521-0.176-1.021-0.537-1.535c-0.547-0.777-1.576-1.737-3.061-2.856c-1.6-1.209-2.574-2.07-2.984-2.634
		c-0.712-0.95-1.076-2.002-1.076-3.122c0-0.891,0.218-1.715,0.646-2.454c0.43-0.738,1.043-1.328,1.821-1.753
		c1.593-0.866,3.603-0.838,5.215,0.081c0.83,0.472,1.668,1.297,2.564,2.521l0.29,0.397l-2.299,1.744l-0.303-0.401
		c-0.653-0.865-1.203-1.437-1.637-1.695c-0.415-0.248-0.855-0.368-1.347-0.368c-0.619,0-1.104,0.178-1.484,0.54
		c-0.374,0.357-0.556,0.786-0.556,1.312c0,0.336,0.068,0.652,0.208,0.965c0.143,0.321,0.417,0.685,0.814,1.083
		c0.149,0.144,0.681,0.579,2.333,1.8c1.666,1.23,2.784,2.307,3.418,3.287c0.646,1.002,0.973,2.027,0.973,3.051
		c0,1.476-0.565,2.771-1.68,3.854C753.37,438.207,752.003,438.752,750.416,438.752 M745.51,434.519
		c0.661,1.112,1.375,1.925,2.125,2.417c0.827,0.541,1.763,0.816,2.781,0.816c1.336,0,2.438-0.439,3.367-1.342
		c0.927-0.9,1.377-1.927,1.377-3.138c0-0.828-0.273-1.672-0.813-2.509c-0.56-0.865-1.627-1.883-3.172-3.023
		c-1.841-1.361-2.273-1.732-2.439-1.893c-0.498-0.498-0.832-0.95-1.028-1.389c-0.195-0.438-0.294-0.899-0.294-1.372
		c0-0.801,0.291-1.485,0.865-2.034c0.566-0.543,1.298-0.817,2.175-0.817c0.667,0,1.292,0.172,1.859,0.511
		c0.475,0.284,1.006,0.794,1.615,1.555l0.717-0.543c-0.69-0.884-1.348-1.506-1.956-1.852c-1.313-0.749-2.951-0.774-4.241-0.071
		c-0.625,0.34-1.094,0.791-1.435,1.377c-0.34,0.583-0.512,1.24-0.512,1.951c0,0.911,0.288,1.737,0.882,2.527
		c0.241,0.334,0.915,1.021,2.781,2.431c1.589,1.196,2.66,2.205,3.276,3.079c0.477,0.677,0.719,1.387,0.719,2.11
		c0,0.632-0.167,1.236-0.495,1.799c-0.332,0.566-0.817,1.021-1.442,1.353c-0.615,0.327-1.281,0.493-1.982,0.493
		c-1.523,0-2.873-0.963-4.017-2.865L745.51,434.519z"/>
	<path clip-path="url(#SVGID_2_)" fill="#3D3D3D" d="M207.683,466.193l24.452,52.434h-5.66l-8.246-17.252H195.64l-8.168,17.252
		h-5.846l24.773-52.434H207.683z M207.021,477.333l-8.985,18.979h17.926L207.021,477.333z"/>
	<polygon clip-path="url(#SVGID_2_)" fill="#3D3D3D" points="330.087,518.626 330.087,466.193 331.228,466.193 366.124,506.386 
		366.124,466.193 371.292,466.193 371.292,518.626 370.116,518.626 335.505,478.923 335.505,518.626 	"/>
	<polygon clip-path="url(#SVGID_2_)" fill="#3D3D3D" points="473.878,518.626 473.878,466.193 475.02,466.193 509.915,506.386 
		509.915,466.193 515.083,466.193 515.083,518.626 513.907,518.626 479.296,478.923 479.296,518.626 	"/>
	<path clip-path="url(#SVGID_2_)" fill="#3D3D3D" d="M639.057,466.193l24.452,52.434h-5.66l-8.246-17.252h-22.588l-8.169,17.252H613
		l24.773-52.434H639.057z M638.395,477.333l-8.983,18.979h17.925L638.395,477.333z"/>
</g>
</svg>
