<?xml version="1.0" encoding="UTF-8"?>
<svg width="510px" height="87px" viewBox="0 0 510 87" version="1.1" xmlns="http://www.w3.org/2000/svg" xmlns:xlink="http://www.w3.org/1999/xlink">
    <!-- Generator: Sketch 61.2 (89653) - https://sketch.com -->
    <title>Contribee</title>
    <desc>Created with Sketch.</desc>
    <g id="Page-1" stroke="none" stroke-width="1" fill="none" fill-rule="evenodd">
        <g id="Artboard" transform="translate(-8.000000, -10.000000)" fill="#3F1C67" fill-rule="nonzero">
            <path d="M49.403,96 C56.045,96 62.1335,94.5035 67.6685,91.5105 C73.2035,88.5175 78.062,84.274 82.244,78.78 L82.244,78.78 L71.543,68.202 C68.099,72.302 64.5935,75.2745 61.0265,77.1195 C57.4595,78.9645 53.585,79.887 49.403,79.887 C45.877,79.887 42.5765,79.2515 39.5015,77.9805 C36.4265,76.7095 33.7615,74.9465 31.5065,72.6915 C29.2515,70.4365 27.468,67.792 26.156,64.758 C24.844,61.724 24.188,58.444 24.188,54.918 C24.188,51.392 24.844,48.112 26.156,45.078 C27.468,42.044 29.2515,39.3995 31.5065,37.1445 C33.7615,34.8895 36.4265,33.106 39.5015,31.794 C42.5765,30.482 45.877,29.826 49.403,29.826 C53.995,29.826 58.177,30.851 61.949,32.901 C65.721,34.951 69.042,38.108 71.912,42.372 L71.912,42.372 L82.613,31.548 C78.923,25.972 74.2695,21.585 68.6525,18.387 C63.0355,15.189 56.619,13.59 49.403,13.59 C43.663,13.59 38.292,14.656 33.29,16.788 C28.288,18.92 23.9215,21.8515 20.1905,25.5825 C16.4595,29.3135 13.5075,33.7005 11.3345,38.7435 C9.1615,43.7865 8.075,49.178 8.075,54.918 C8.075,60.658 9.1615,66.029 11.3345,71.031 C13.5075,76.033 16.4595,80.379 20.1905,84.069 C23.9215,87.759 28.288,90.67 33.29,92.802 C38.292,94.934 43.663,96 49.403,96 Z M119.069,96.246 C123.251,96.246 127.187,95.4465 130.877,93.8475 C134.567,92.2485 137.765,90.096 140.471,87.39 C143.177,84.684 145.3295,81.486 146.9285,77.796 C148.5275,74.106 149.327,70.17 149.327,65.988 C149.327,61.724 148.5275,57.747 146.9285,54.057 C145.3295,50.367 143.177,47.1485 140.471,44.4015 C137.765,41.6545 134.567,39.4815 130.877,37.8825 C127.187,36.2835 123.251,35.484 119.069,35.484 C114.805,35.484 110.828,36.2835 107.138,37.8825 C103.448,39.4815 100.25,41.6545 97.544,44.4015 C94.838,47.1485 92.706,50.367 91.148,54.057 C89.59,57.747 88.811,61.724 88.811,65.988 C88.811,70.17 89.59,74.106 91.148,77.796 C92.706,81.486 94.838,84.684 97.544,87.39 C100.25,90.096 103.448,92.2485 107.138,93.8475 C110.828,95.4465 114.805,96.246 119.069,96.246 Z M119.069,80.871 C117.019,80.871 115.092,80.4815 113.288,79.7025 C111.484,78.9235 109.9055,77.8575 108.5525,76.5045 C107.1995,75.1515 106.1335,73.573 105.3545,71.769 C104.5755,69.965 104.186,68.038 104.186,65.988 C104.186,63.938 104.5755,61.9905 105.3545,60.1455 C106.1335,58.3005 107.1995,56.7015 108.5525,55.3485 C109.9055,53.9955 111.484,52.9295 113.288,52.1505 C115.092,51.3715 117.019,50.982 119.069,50.982 C121.119,50.982 123.0255,51.3715 124.7885,52.1505 C126.5515,52.9295 128.1095,53.9955 129.4625,55.3485 C130.8155,56.7015 131.8815,58.3005 132.6605,60.1455 C133.4395,61.9905 133.829,63.938 133.829,65.988 C133.829,68.038 133.4395,69.965 132.6605,71.769 C131.8815,73.573 130.8155,75.1515 129.4625,76.5045 C128.1095,77.8575 126.5515,78.9235 124.7885,79.7025 C123.0255,80.4815 121.119,80.871 119.069,80.871 Z M173.36,96 L173.36,67.218 C173.524,62.052 175.0205,57.993 177.8495,55.041 C180.6785,52.089 184.184,50.613 188.366,50.613 C190.416,50.613 192.343,51.023 194.147,51.843 C195.951,52.663 197.5295,53.7905 198.8825,55.2255 C200.2355,56.6605 201.3015,58.3005 202.0805,60.1455 C202.8595,61.9905 203.249,63.938 203.249,65.988 L203.249,65.988 L203.249,96 L218.501,96 L218.501,64.02 C218.501,59.756 217.8245,55.8815 216.4715,52.3965 C215.1185,48.9115 213.2735,45.9185 210.9365,43.4175 C208.5995,40.9165 205.8525,38.969 202.6955,37.575 C199.5385,36.181 196.156,35.484 192.548,35.484 C188.694,35.484 185.127,36.263 181.847,37.821 C178.567,39.379 175.738,41.675 173.36,44.709 L173.36,44.709 L173.36,35.73 L158.108,35.73 L158.108,96 L173.36,96 Z M251.759,96.246 L251.759,82.716 C247.331,82.716 245.117,80.584 245.117,76.32 L245.117,76.32 L245.117,48.153 L253.481,48.153 L253.481,35.484 L245.117,35.484 L245.117,18.633 L229.742,18.633 L229.742,35.484 L225.929,35.484 L225.929,48.153 L229.742,48.153 L229.742,76.32 C229.742,83.208 231.4845,88.251 234.9695,91.449 C238.4545,94.647 244.051,96.246 251.759,96.246 L251.759,96.246 Z M275.423,96 L275.423,64.389 C275.505,62.585 276.038,60.863 277.022,59.223 C278.006,57.583 279.236,56.148 280.712,54.918 C282.188,53.688 283.8485,52.7245 285.6935,52.0275 C287.5385,51.3305 289.404,50.982 291.29,50.982 L291.29,50.982 L291.29,35.484 C287.764,35.484 284.6685,36.3245 282.0035,38.0055 C279.3385,39.6865 277.145,41.757 275.423,44.217 L275.423,44.217 L275.423,35.73 L260.171,35.73 L260.171,96 L275.423,96 Z M306.713,29.088 C309.337,29.088 311.5305,28.186 313.2935,26.382 C315.0565,24.578 315.938,22.446 315.938,19.986 C315.938,17.362 315.0565,15.148 313.2935,13.344 C311.5305,11.54 309.337,10.638 306.713,10.638 C304.253,10.638 302.121,11.54 300.317,13.344 C298.513,15.148 297.611,17.362 297.611,19.986 C297.611,22.446 298.513,24.578 300.317,26.382 C302.121,28.186 304.253,29.088 306.713,29.088 Z M314.339,96 L314.339,35.73 L299.087,35.73 L299.087,96 L314.339,96 Z M358.298,96.246 C362.07,96.246 365.596,95.4465 368.876,93.8475 C372.156,92.2485 375.0055,90.096 377.4245,87.39 C379.8435,84.684 381.75,81.486 383.144,77.796 C384.538,74.106 385.235,70.17 385.235,65.988 C385.235,61.724 384.538,57.747 383.144,54.057 C381.75,50.367 379.8435,47.1485 377.4245,44.4015 C375.0055,41.6545 372.156,39.4815 368.876,37.8825 C365.596,36.2835 362.07,35.484 358.298,35.484 C354.608,35.484 351.2255,36.2425 348.1505,37.7595 C345.0755,39.2765 342.39,41.347 340.094,43.971 L340.094,43.971 L340.094,18.633 L324.842,18.633 L324.842,96 L340.094,96 L340.094,87.882 C342.39,90.506 345.0755,92.556 348.1505,94.032 C351.2255,95.508 354.608,96.246 358.298,96.246 Z M355.1,80.871 C352.968,80.871 351,80.4815 349.196,79.7025 C347.392,78.9235 345.8135,77.8575 344.4605,76.5045 C343.1075,75.1515 342.0415,73.573 341.2625,71.769 C340.4835,69.965 340.094,68.038 340.094,65.988 L340.094,65.988 L340.094,65.373 C340.176,63.405 340.6065,61.5395 341.3855,59.7765 C342.1645,58.0135 343.2305,56.4965 344.5835,55.2255 C345.9365,53.9545 347.515,52.9295 349.319,52.1505 C351.123,51.3715 353.05,50.982 355.1,50.982 C357.15,50.982 359.077,51.3715 360.881,52.1505 C362.685,52.9295 364.2635,53.9955 365.6165,55.3485 C366.9695,56.7015 368.0355,58.3005 368.8145,60.1455 C369.5935,61.9905 369.983,63.938 369.983,65.988 C369.983,68.038 369.5935,69.965 368.8145,71.769 C368.0355,73.573 366.9695,75.1515 365.6165,76.5045 C364.2635,77.8575 362.685,78.9235 360.881,79.7025 C359.077,80.4815 357.15,80.871 355.1,80.871 Z M424.643,96.246 C429.973,96.246 434.9545,95.1185 439.5875,92.8635 C444.2205,90.6085 448.382,86.775 452.072,81.363 L452.072,81.363 L441.74,71.4 C440.018,73.86 438.009,75.8895 435.713,77.4885 C433.417,79.0875 430.998,80.215 428.456,80.871 C426.898,81.281 425.34,81.404 423.782,81.24 C422.224,81.076 421.035,80.789 420.215,80.379 L420.215,80.379 L452.81,51.474 C449.12,45.652 444.8355,41.5315 439.9565,39.1125 C435.0775,36.6935 429.973,35.484 424.643,35.484 C420.461,35.484 416.525,36.2835 412.835,37.8825 C409.145,39.4815 405.947,41.6545 403.241,44.4015 C400.535,47.1485 398.3825,50.367 396.7835,54.057 C395.1845,57.747 394.385,61.724 394.385,65.988 C394.385,70.17 395.1845,74.106 396.7835,77.796 C398.3825,81.486 400.535,84.684 403.241,87.39 C405.947,90.096 409.145,92.2485 412.835,93.8475 C416.525,95.4465 420.461,96.246 424.643,96.246 Z M411.113,73.491 C410.211,72.589 409.5345,71.2565 409.0835,69.4935 C408.6325,67.7305 408.612,65.783 409.022,63.651 C409.678,59.797 411.195,56.722 413.573,54.426 C415.951,52.13 418.944,50.736 422.552,50.244 C424.766,49.998 426.7545,50.1825 428.5175,50.7975 C430.2805,51.4125 431.695,52.171 432.761,53.073 L432.761,53.073 L411.113,73.491 Z M489.635,96.246 C494.965,96.246 499.9465,95.1185 504.5795,92.8635 C509.2125,90.6085 513.374,86.775 517.064,81.363 L517.064,81.363 L506.732,71.4 C505.01,73.86 503.001,75.8895 500.705,77.4885 C498.409,79.0875 495.99,80.215 493.448,80.871 C491.89,81.281 490.332,81.404 488.774,81.24 C487.216,81.076 486.027,80.789 485.207,80.379 L485.207,80.379 L517.802,51.474 C514.112,45.652 509.8275,41.5315 504.9485,39.1125 C500.0695,36.6935 494.965,35.484 489.635,35.484 C485.453,35.484 481.517,36.2835 477.827,37.8825 C474.137,39.4815 470.939,41.6545 468.233,44.4015 C465.527,47.1485 463.3745,50.367 461.7755,54.057 C460.1765,57.747 459.377,61.724 459.377,65.988 C459.377,70.17 460.1765,74.106 461.7755,77.796 C463.3745,81.486 465.527,84.684 468.233,87.39 C470.939,90.096 474.137,92.2485 477.827,93.8475 C481.517,95.4465 485.453,96.246 489.635,96.246 Z M476.105,73.491 C475.203,72.589 474.5265,71.2565 474.0755,69.4935 C473.6245,67.7305 473.604,65.783 474.014,63.651 C474.67,59.797 476.187,56.722 478.565,54.426 C480.943,52.13 483.936,50.736 487.544,50.244 C489.758,49.998 491.7465,50.1825 493.5095,50.7975 C495.2725,51.4125 496.687,52.171 497.753,53.073 L497.753,53.073 L476.105,73.491 Z" id="Contribee"></path>
        </g>
    </g>
</svg>